<?xml version="1.0" encoding="utf-8"?>
<!-- Generator: Adobe Illustrator 24.1.0, SVG Export Plug-In . SVG Version: 6.00 Build 0)  -->
<svg version="1.1" id="Layer_1" xmlns="http://www.w3.org/2000/svg" xmlns:xlink="http://www.w3.org/1999/xlink" x="0px" y="0px"
	 viewBox="0 0 1600 2352.9" style="enable-background:new 0 0 1600 2352.9;" xml:space="preserve">
<style type="text/css">
	.st0{fill:#FCB58A;}
	.st1{fill:#DEC7B2;}
	.st2{fill:#E8D4C1;}
	.st3{fill:#BA9C7E;}
	.st4{fill:#EBDBCD;}
	.st5{fill:#4C7378;}
	.st6{fill:#57848A;}
	.st7{fill:#689399;}
	.st8{fill:#D4BFA9;}
	.st9{fill:#110580;}
	.st10{fill:#001D80;}
	.st11{fill:#FFFFFF;}
	.st12{fill:none;}
	.st13{fill:#E3996D;}
	.st14{fill:#FFADB2;}
	.st15{fill:#AAACE3;}
	.st16{fill:#DADAED;}
	.st17{fill:#989BD7;}
	.st18{fill:#FF7A82;}
	.st19{fill:#2B31BA;}
	.st20{fill:#F8D7BC;}
	.st21{fill:#F8ECE2;}
	.st22{fill:#EBD0BE;}
	.st23{fill:#F8E7D8;}
	.st24{fill:#FF5856;}
	.st25{fill:#D7D7E6;}
	.st26{fill:#C7645D;}
	.st27{fill:#6B4D3A;}
	.st28{fill:#8A634B;}
	.st29{fill:#C5C6E3;}
	.st30{fill:#F8D0B3;}
	.st31{fill:#4E53BA;}
	.st32{fill:#DEBCA7;}
	.st33{fill:#BFA990;}
	.st34{fill:#F3E9E1;}
	.st35{fill:#E0E0E0;}
	.st36{fill:#F0A173;}
</style>
<g>
	<path class="st0" d="M1435,1002.4l-70-0.2c-23.8-0.2-43.3-14.8-43.6-32.3v-6.1c-0.2-17.5,18.9-31.7,42.4-31.4l70,0.2
		c23.8,0.2,43.3,14.8,43.6,32.3v6.1C1477.6,988.5,1458.6,1002.6,1435,1002.4z"/>
	<path class="st0" d="M220.1,998.4l-70-0.2c-23.8-0.2-43.3-14.8-43.6-32.3v-6.1c-0.2-17.5,18.9-31.7,42.4-31.4l70,0.2
		c23.8,0.2,43.3,14.8,43.6,32.3v6.1C262.8,984.5,243.7,998.6,220.1,998.4z"/>
	<path class="st0" d="M599.8,2038.6c-2.7,35.7-5.4,71.4-8.3,107.1c-1.8,23.8,26,42.9,49.2,41.8c27.8-1.3,42.9-22.7,44.7-46.7
		c2.7-35.7,5.4-71.4,8.3-107.1c1.8-23.8-26-42.9-49.2-41.8C616.6,1993.2,601.8,2014.5,599.8,2038.6L599.8,2038.6z"/>
	<path class="st0" d="M941.7,2049.8c5.6,35.2,11.2,70.7,16.8,106c3.8,23.6,35.2,35.7,57.5,29.2c26.7-7.9,36.4-31.9,32.6-55.7
		c-5.6-35.2-11.2-70.7-16.8-106c-3.8-23.6-35.2-35.7-57.5-29.2C947.6,2002,937.9,2026,941.7,2049.8L941.7,2049.8z"/>
	<g>
		<g>
			<g>
				<path class="st1" d="M221.9,1996.6c-86.9,0-157.6-8.1-160.1-18l12.8,151.5c0,71.8,66.2,130.7,147.3,130.7l0,0
					c81.1,0,147.3-58.8,147.3-130.7l12.8-151.8l0,0C380.2,1988.5,309.3,1996.6,221.9,1996.6z"/>
			</g>
			<path class="st2" d="M221.9,1996.6c-88.2,0-159.9-8.3-160.1-18.4v-0.2c0.7-10.1,72.1-18.4,160.1-18.4s159.4,8.3,160.1,18.4v0.2
				C381.5,1988.3,310.1,1996.6,221.9,1996.6z"/>
			<path class="st3" d="M221.9,1993.4c-74.3,0-134.7-7-134.9-15.7v-0.2c0.7-8.5,60.8-15.5,134.9-15.5c74.3,0,134.5,7,134.9,15.5v0.2
				C356.6,1986.5,296.2,1993.4,221.9,1993.4z"/>
			<path class="st4" d="M67.2,2043.5c10.3,0.2,20.4,4.3,29.2,12.8c16.4,15.9,26.7,40.4,40,59c4.9-10.1,9.4-20.4,13.2-31
				c4.7-12.6,21.6-24.2,34.8-14.1c14.1,11,24.7,23.3,33.9,38.6c7.9,13.2,14.4,29,26.7,38.8c11.9,9.7,25.4,12.3,30.3-4.7
				c4.3-15,2.7-31,7.6-46c4-12.6,10.3-25.4,23.1-31c15-6.5,29.6,1.6,43.1,8.3c8.1,4,15.9,8.3,23.6,13l-2.7,31.9
				c-13.7-8.5-30.5-19.1-44.7-21.1c-9-1.3-8.3,4.7-9,13c-0.4,7.4-0.4,15-0.9,22.5c-0.9,15.3-3.1,30.5-12.1,43.1
				c-19.3,27.2-55.5,25.8-80.8,8.5c-13.7-9.2-23.6-21.3-32.3-35.2c-2.9-4.5-5.6-9.2-8.5-13.9c-11,25.4-27.6,48.3-55.2,38.6
				c-17.1-6.1-28.3-24.7-38.4-38.6c-3.1-4.3-9-14.8-14.8-24.2L67.2,2043.5z"/>
		</g>
		<path class="st5" d="M4.6,1478.6c3.4-13,18.6-15,27.6-7.4c17.1,14.4,26,34.1,35.5,53.7c9.9,20.7,22,39.5,36.1,57.3
			c28.7,36.6,60.6,70.5,81.5,112.5c40.6,81.3,50.5,176.9,22.5,263.8c-0.9,2.7,4.5-11-4.3,13c-7.9,21.8-38.8,10.1-38.6-15.3
			c0.2-24.9-6.3-48-17.3-70c-21.8-43.8-49.2-84.6-70.5-128.6c-21.6-44.5-40.4-90.3-55.7-137.2C6.6,1574.7-7.5,1526.4,4.6,1478.6z"/>
		<path class="st6" d="M204.4,1223.8c11-20,43.1-6.5,36.8,15.5c-18.9,64.2-5.4,132.2,6.3,196.5c11.9,65.6,25.8,130.7,33.9,196.9
			c14.4,117.4,9.7,249.4-64.7,347.8c-8.1,10.6-24.9,1.8-18.2-10.8c7.4-13.9-11.2-105.5-19.5-134.7c-8.3-30.3-16.8-60.4-24.2-90.9
			c-14.8-59.5-26.9-120.1-30.1-181.4C118,1443.4,147.4,1328,204.4,1223.8z"/>
		<path class="st7" d="M239.9,1876.9c8.8-40,2.2-82.4,10.8-122.1c8.3-39.1,19.8-78.6,37.9-114.3c17.3-33.9,43.8-57.9,74.8-79
			c29.2-19.8,63.8-39.3,74.1-75.4c6.1-21.6,42.7-18.4,40.4,5.4c-4.9,48.5-25.4,91.2-49.2,133.1c-25.4,44.5-47.6,87.1-59.9,137.2
			c-21.3,85.8-39.7,196.9-137.4,223.2C219.4,1988.1,221,1962.5,239.9,1876.9z"/>
	</g>
	<path class="st0" d="M219,1008c71.2,36.4,143.2,57.3,223.8,55.7c75.4-1.6,148.9-21.8,191.3-89.4c28.1-44.9-42.9-86.2-70.9-41.5
		c-28.7,45.8-86,49.2-134.9,48.7c-60.6-0.4-114.3-17.1-167.7-44.5C213.6,913.1,171.8,984,219,1008L219,1008z"/>
	<path class="st0" d="M1314.4,937.1c-53.7,27.4-107.1,44-167.7,44.5c-51.6,0.4-98.3-5.4-127.5-52.5c-27.8-44.9-98.8-3.6-70.9,41.5
		c18.2,29.4,42.9,55.2,73.9,70.7c34.8,17.5,71.4,21.6,109.8,22.5c80.6,1.6,152.7-19.3,223.8-55.7
		C1402.9,984,1361.3,913.1,1314.4,937.1L1314.4,937.1z"/>
	<polygon class="st8" points="1563.2,1271.4 1535.1,1424.3 1412.3,1322.8 	"/>
	<circle class="st4" cx="455.9" cy="86.2" r="82.4"/>
	<g>
		<path class="st9" d="M534.2,251.6c-0.7,0-1.3-0.4-1.8-1.1c-0.4-0.9,0-2,0.9-2.5l8.5-3.8l-3.8-8.5c-0.4-0.9,0-2,0.9-2.5
			c0.9-0.4,2,0,2.5,0.9l5.2,12.1l-12.1,5.2C534.7,251.6,534.4,251.6,534.2,251.6z"/>
		<path class="st9" d="M359.1,328.2c-0.7,0-1.3-0.4-1.8-1.1c-0.4-0.9,0-2,0.9-2.5l22-9.7c0.9-0.4,2,0,2.5,0.9c0.4,0.9,0,2-0.9,2.5
			l-22,9.7C359.5,328.2,359.3,328.2,359.1,328.2z M402.9,309.1c-0.7,0-1.3-0.4-1.8-1.1c-0.4-0.9,0-2,0.9-2.5l22-9.7
			c0.9-0.4,2,0,2.5,0.9c0.4,0.9,0,2-0.9,2.5l-22,9.7C403.3,309.1,403.1,309.1,402.9,309.1z M446.7,290c-0.7,0-1.3-0.4-1.8-1.1
			c-0.4-0.9,0-2,0.9-2.5l22-9.7c0.9-0.4,2,0,2.5,0.9s0,2-0.9,2.5l-22,9.7C447.1,290,446.9,290,446.7,290z M490.4,270.7
			c-0.7,0-1.3-0.4-1.8-1.1c-0.4-0.9,0-2,0.9-2.5l22-9.7c0.9-0.4,2,0,2.5,0.9c0.4,0.9,0,2-0.9,2.5l-22,9.7
			C490.9,270.7,490.7,270.7,490.4,270.7z"/>
		<path class="st9" d="M325.9,343l-5.2-12.1c-0.4-0.9,0-2,0.9-2.5c0.9-0.4,2,0,2.5,0.9l3.8,8.5l8.5-3.8c0.9-0.4,2,0,2.5,0.9
			c0.4,0.9,0,2-0.9,2.5L325.9,343z"/>
		<path class="st9" d="M313.5,311.8c-0.7,0-1.3-0.4-1.8-1.1l-9-20.4c-0.4-0.9,0-2,0.9-2.5c0.9-0.4,2,0,2.5,0.9l9,20.4
			c0.4,0.9,0,2-0.9,2.5C314,311.6,313.7,311.8,313.5,311.8z M295.6,270.9c-0.7,0-1.3-0.4-1.8-1.1l-9-20.4c-0.4-0.9,0-2,0.9-2.5
			c0.9-0.4,2,0,2.5,0.9l9,20.4c0.4,0.9,0,2-0.9,2.5C296.2,270.9,295.8,270.9,295.6,270.9z M277.8,230.3c-0.7,0-1.3-0.4-1.8-1.1
			l-9-20.4c-0.4-0.9,0-2,0.9-2.5c0.9-0.4,2,0,2.5,0.9l9,20.4c0.4,0.9,0,2-0.9,2.5C278.3,230.3,278,230.3,277.8,230.3z"/>
		<path class="st9" d="M260.1,189.7c-0.7,0-1.3-0.4-1.8-1.1l-5.2-12.1l12.1-5.2c0.9-0.4,2,0,2.5,0.9c0.4,0.9,0,2-0.9,2.5l-8.5,3.8
			l3.8,8.5c0.4,0.9,0,2-0.9,2.5C260.5,189.7,260.3,189.7,260.1,189.7z"/>
		<path class="st9" d="M287.7,165.4c-0.7,0-1.3-0.4-1.8-1.1c-0.4-0.9,0-2,0.9-2.5l22-9.7c0.9-0.4,2,0,2.5,0.9s0,2-0.9,2.5l-22,9.7
			C288.4,165.2,287.9,165.4,287.7,165.4z M331.5,146.1c-0.7,0-1.3-0.4-1.8-1.1c-0.4-0.9,0-2,0.9-2.5l22-9.7c0.9-0.4,2,0,2.5,0.9
			c0.4,0.9,0,2-0.9,2.5l-22,9.7C332.2,146.1,331.7,146.1,331.5,146.1z M375.3,127c-0.7,0-1.3-0.4-1.8-1.1c-0.4-0.9,0-2,0.9-2.5
			l22-9.7c0.9-0.4,2,0,2.5,0.9c0.4,0.9,0,2-0.9,2.5l-22,9.7C375.9,127,375.7,127,375.3,127z M419.3,107.9c-0.7,0-1.3-0.4-1.8-1.1
			c-0.4-0.9,0-2,0.9-2.5l22-9.7c0.9-0.4,2,0,2.5,0.9c0.4,0.9,0,2-0.9,2.5l-22,9.7C419.7,107.7,419.5,107.9,419.3,107.9z"/>
		<path class="st9" d="M477.9,94.5c-0.7,0-1.3-0.4-1.8-1.1l-3.8-8.5l-8.5,3.8c-0.9,0.4-2,0-2.5-0.9s0-2,0.9-2.5l12.1-5.2l5.2,12.1
			c0.4,0.9,0,2-0.9,2.5C478.3,94.5,478.1,94.5,477.9,94.5z"/>
		<path class="st9" d="M531.1,216.6c-0.7,0-1.3-0.4-1.8-1.1l-9-20.4c-0.4-0.9,0-2,0.9-2.5c0.9-0.4,2,0,2.5,0.9l9,20.4
			c0.4,0.9,0,2-0.9,2.5C531.7,216.4,531.3,216.6,531.1,216.6z M513.3,175.8c-0.7,0-1.3-0.4-1.8-1.1l-9-20.4c-0.4-0.9,0-2,0.9-2.5
			c0.9-0.4,2,0,2.5,0.9l9,20.4c0.4,0.9,0,2-0.9,2.5C513.8,175.8,513.6,175.8,513.3,175.8z M495.6,135.1c-0.7,0-1.3-0.4-1.8-1.1
			l-9-20.4c-0.4-0.9,0-2,0.9-2.5c0.9-0.4,2,0,2.5,0.9l9,20.4c0.4,0.9,0,2-0.9,2.5C496,135.1,495.8,135.1,495.6,135.1z"/>
	</g>
	<g>
		<path class="st9" d="M1448.5,1470.3l-10.1-3.8c-0.9-0.2-1.1-1.1-0.9-2c0.2-0.9,1.1-1.3,2-0.9l7.2,2.7l2.7-7.2
			c0.2-0.9,1.1-1.1,2-0.9c0.9,0.2,1.1,1.1,0.9,2L1448.5,1470.3z"/>
		<path class="st9" d="M1422.9,1460.7c-0.2,0-0.4,0-0.4,0l-15.7-5.8c-0.9-0.2-1.1-1.1-0.9-2c0.2-0.9,1.1-1.3,2-0.9l15.7,5.8
			c0.9,0.2,1.1,1.1,0.9,2C1424.2,1460.4,1423.5,1460.7,1422.9,1460.7z M1391.4,1449c-0.2,0-0.4,0-0.4,0l-15.7-5.8
			c-0.9-0.2-1.1-1.1-0.9-2c0.2-0.9,1.1-1.1,2-0.9l15.7,5.8c0.9,0.2,1.1,1.1,0.9,2C1392.5,1448.5,1392.1,1449,1391.4,1449z
			 M1359.8,1437.3c-0.2,0-0.4,0-0.4,0l-15.7-5.8c-0.9-0.2-1.1-1.1-0.9-2c0.2-0.9,1.1-1.3,2-0.9l15.7,5.8c0.9,0.2,1.1,1.1,0.9,2
			C1361.1,1436.9,1360.4,1437.3,1359.8,1437.3z M1328.1,1425.4c-0.2,0-0.4,0-0.4,0l-15.7-5.8c-0.9-0.2-1.1-1.1-0.9-2
			c0.2-0.9,1.1-1.3,2-0.9l15.7,5.8c0.9,0.2,1.1,1.1,0.9,2C1329.5,1425,1328.8,1425.4,1328.1,1425.4z"/>
		<path class="st9" d="M1296.7,1413.7c-0.2,0-0.4,0-0.4,0l-10.1-3.8l3.8-10.1c0.2-0.9,1.1-1.3,2-0.9c0.9,0.2,1.1,1.1,0.9,2l-2.7,7.2
			l7.2,2.7c0.9,0.2,1.1,1.1,0.9,2C1297.8,1413.3,1297.4,1413.7,1296.7,1413.7z"/>
		<path class="st9" d="M1297.1,1385.9c-0.2,0-0.4,0-0.4,0c-0.9-0.2-1.1-1.1-0.9-2l5.8-15.7c0.2-0.9,1.1-1.3,2-0.9
			c0.9,0.2,1.1,1.1,0.9,2l-5.8,15.7C1298.2,1385.4,1297.6,1385.9,1297.1,1385.9z M1308.8,1354.5c-0.2,0-0.4,0-0.4,0
			c-0.9-0.2-1.1-1.1-0.9-2l5.8-15.7c0.2-0.9,1.1-1.3,2-0.9c0.9,0.2,1.1,1.1,0.9,2l-5.8,15.7
			C1310.1,1354,1309.5,1354.5,1308.8,1354.5z M1320.5,1322.8c-0.2,0-0.4,0-0.4,0c-0.9-0.2-1.1-1.1-0.9-2l5.8-15.7
			c0.2-0.9,1.1-1.3,2-0.9c0.9,0.2,1.1,1.1,0.9,2l-5.8,15.7C1321.8,1322.4,1321.1,1322.8,1320.5,1322.8z M1332.4,1291.2
			c-0.2,0-0.4,0-0.4,0c-0.9-0.2-1.1-1.1-0.9-2l5.8-15.7c0.2-0.9,1.1-1.3,2-0.9c0.9,0.2,1.1,1.1,0.9,2l-5.8,15.7
			C1333.5,1290.9,1333,1291.2,1332.4,1291.2z"/>
		<path class="st9" d="M1344.1,1259.7c-0.2,0-0.4,0-0.4,0c-0.9-0.2-1.1-1.1-0.9-2l3.8-10.1l10.1,3.8c0.9,0.2,1.1,1.1,0.9,2
			c-0.2,0.9-1.1,1.1-2,0.9l-7.2-2.7l-2.7,7.2C1345.4,1259.3,1344.7,1259.7,1344.1,1259.7z"/>
		<path class="st9" d="M1482.4,1301.3c-0.2,0-0.4,0-0.4,0l-15.7-5.8c-0.9-0.2-1.1-1.1-0.9-2c0.2-0.9,1.1-1.3,2-0.9l15.7,5.8
			c0.9,0.2,1.1,1.1,0.9,2C1483.7,1300.8,1483,1301.3,1482.4,1301.3z M1450.7,1289.6c-0.2,0-0.4,0-0.4,0l-15.7-5.8
			c-0.9-0.2-1.1-1.1-0.9-2c0.2-0.9,1.1-1.1,2-0.9l15.7,5.8c0.9,0.2,1.1,1.1,0.9,2C1452,1289.1,1451.4,1289.6,1450.7,1289.6z
			 M1419.3,1277.7c-0.2,0-0.4,0-0.4,0l-15.7-5.8c-0.9-0.2-1.1-1.1-0.9-2c0.2-0.9,1.1-1.3,2-0.9l15.7,5.8c0.9,0.2,1.1,1.1,0.9,2
			C1420.4,1277.2,1419.9,1277.7,1419.3,1277.7z M1387.6,1266c-0.2,0-0.4,0-0.4,0l-15.7-5.8c-0.9-0.2-1.1-1.1-0.9-2
			c0.2-0.9,1.1-1.3,2-0.9l15.7,5.8c0.9,0.2,1.1,1.1,0.9,2C1389,1265.6,1388.3,1266,1387.6,1266z"/>
		<path class="st9" d="M1503.7,1319c-0.2,0-0.4,0-0.4,0c-0.9-0.2-1.1-1.1-0.9-2l2.7-7.2l-7.2-2.7c-0.9-0.2-1.1-1.1-0.9-2
			c0.2-0.9,1.1-1.3,2-0.9l10.1,3.8l-3.8,10.1C1504.8,1318.8,1504.4,1319,1503.7,1319z"/>
		<path class="st9" d="M1456.5,1445.4c-0.2,0-0.4,0-0.4,0c-0.9-0.2-1.1-1.1-0.9-2l5.8-15.7c0.2-0.9,1.1-1.3,2-0.9
			c0.9,0.2,1.1,1.1,0.9,2l-5.8,15.7C1457.9,1444.9,1457.2,1445.4,1456.5,1445.4z M1468.2,1413.7c-0.2,0-0.4,0-0.4,0
			c-0.9-0.2-1.1-1.1-0.9-2l5.8-15.7c0.2-0.9,1.1-1.3,2-0.9c0.9,0.2,1.1,1.1,0.9,2l-5.8,15.7
			C1469.6,1413.5,1468.9,1413.7,1468.2,1413.7z M1480.1,1382.3c-0.2,0-0.4,0-0.4,0c-0.9-0.2-1.1-1.1-0.9-2l5.8-15.7
			c0.2-0.9,1.1-1.3,2-0.9c0.9,0.2,1.1,1.1,0.9,2l-5.8,15.7C1481.2,1381.9,1480.8,1382.3,1480.1,1382.3z M1491.8,1350.6
			c-0.2,0-0.4,0-0.4,0c-0.9-0.2-1.1-1.1-0.9-2l5.8-15.7c0.2-0.9,1.1-1.3,2-0.9c0.9,0.2,1.1,1.1,0.9,2l-5.8,15.7
			C1493.1,1350.2,1492.5,1350.6,1491.8,1350.6z"/>
	</g>
	<path class="st9" d="M1019.2,720.9c0,0-39.7-126.4-53-179.8c-20.7-82.4-76.8-132-156-132c-80.4,0-137,50.5-159.2,132.5
		c-22.7,84.4-52.5,172.7-52.5,172.7c-3.6,11.2,2,23.1,12.8,27.6c25.6,10.1,79,28.1,198.7,26.7c106.9-1.3,162.1-16.4,189.9-19.3
		C1013.8,747.6,1022.8,734.1,1019.2,720.9z"/>
	<path class="st0" d="M855.7,680.9h-91.4v155.6c0,13,10.6,23.6,23.6,23.6h44.2c13,0,23.6-10.6,23.6-23.6V680.9z"/>
	<path class="st10" d="M748.4,464.5L748.4,464.5L748.4,464.5z"/>
	<circle class="st9" cx="808.8" cy="339.9" r="57"/>
	<path class="st11" d="M674.5,699.3c-14.8,0-15.3-49.8-15.3-55.5s0.4-55.5,15.3-55.5c14.8,0,15.3,49.8,15.3,55.5
		C689.6,649.5,689.1,699.3,674.5,699.3z M674.5,596.9c-2.7,3.6-7,19.5-7,46.7c0,27.2,4.3,43.1,7,46.7c2.7-3.6,7-19.5,7-46.7
		C681.5,616.5,677.2,600.8,674.5,596.9z"/>
	<path class="st11" d="M942.8,699.3c-14.8,0-15.3-49.8-15.3-55.5s0.4-55.5,15.3-55.5c14.8,0,15.3,49.8,15.3,55.5
		C957.9,649.5,957.4,699.3,942.8,699.3z M942.8,596.9c-2.7,3.6-7,19.5-7,46.7c0,27.2,4.3,43.1,7,46.7c2.7-3.6,7-19.5,7-46.7
		C949.8,616.5,945.5,600.8,942.8,596.9z"/>
	<circle class="st0" cx="810.1" cy="563.7" r="151.1"/>
	<path class="st9" d="M655.9,574.7c0.2,2.5,0.4,4.9,0.7,7.2c0,0.2,0,0.7,0,0.9c0.2,2.7,0.7,5.2,1.1,7.9v0.2c0.4,2.7,1.1,5.4,1.6,8.3
		c10.1-41.8,47.6-72.5,92.5-72.5c5.6,0,11,0.4,16.4,1.3c4,0.9,8.1,1.3,12.3,1.3c28.1,0,51.4-21.3,54.3-48.7c0,0,0.2,0,0.2-0.2
		c-0.4,2.9-0.7,5.8-0.7,8.8c0,32.1,26,58.1,58.1,58.1h0.2c31.4,6.3,56.6,29.6,65.8,59.9l0,0c2-6.7,3.4-13.7,4.5-20.7
		c0-0.2,0-0.4,0-0.9c0.4-2.9,0.7-5.8,0.9-9c0-0.7,0.2-1.6,0.2-2.2c0.2-3.4,0.4-6.7,0.4-10.1c0-2.9,0-5.6-0.2-8.3
		c0-0.9-0.2-1.6-0.2-2.5c-0.2-2-0.2-4-0.4-5.8c0-0.9-0.2-1.8-0.4-2.7c-0.2-1.8-0.4-3.8-0.7-5.6c-0.2-0.9-0.2-1.8-0.4-2.7
		c-0.4-1.8-0.7-3.8-1.1-5.6c-0.2-0.9-0.4-1.6-0.4-2.5c-0.4-2-0.9-3.8-1.6-5.8c-0.2-0.7-0.4-1.3-0.7-2c-0.7-2-1.3-4-2-6.1
		c-0.2-0.4-0.4-1.1-0.4-1.6c-0.7-2.2-1.6-4.5-2.5-6.5c-0.2-0.2-0.2-0.7-0.4-0.9c-0.9-2.5-2-4.9-3.1-7.4l0,0
		c-13.2-28.3-35-52.1-62-67.8l0,0c-8.5-4.9-17.5-9.2-26.9-12.3c-0.2,0-0.7-0.2-0.9-0.2c-2.7-0.9-5.4-1.8-8.3-2.5
		c-0.4-0.2-0.9-0.2-1.3-0.4c-6.1-1.6-12.3-2.9-18.6-3.8c-0.9-0.2-1.6-0.2-2.5-0.2c-2.5-0.2-4.7-0.4-7.2-0.7c-0.9,0-1.8-0.2-2.7-0.2
		c-3.1-0.2-6.3-0.2-9.7-0.2c-85.3,0-154.5,69.2-154.5,154.5c0,2.9,0,5.6,0.2,8.5C655.9,573.8,655.9,574.3,655.9,574.7z"/>
	<path class="st11" d="M957.4,815c-38.4-22.9-82.4-30.8-101.7-33.7c-6.1,25.1-18.9,39.1-47.1,39.1c-28.7,0-38.6-14.4-44-40.2
		c-5.8,0.2-23.6,3.8-27.6,4.7c-52.1,10.1-73.2,23.6-99.5,43.1c-40.2,30.1-79.5,92.5-88,106.6c-1.1,1.8-1.1,4,0,5.8
		c4.7,7.2,17.7,25.8,36.4,37.9c26,17.3,57,26.7,57,26.7s12.6-22.9,16.2-31.7c4.9-11.5,18-50.1,18-50.1s-11.9,25.8-12.8,52.5
		c-0.7,24.5,7.6,52.1,7,68.3c-1.8,37-12.8,68.9-16.6,83.3c-0.9,3.4,1.1,7,4.7,7.6c20,4.5,79.7,18,140.3,17.7
		c78.8,0,132.9-8.5,152-11.5c3.6-0.7,5.8-4,4.9-7.6c-3.1-12.6-8.5-34.1-13.9-82.2c-4.3-37.7,0.2-44.9,0-71.4
		c0-19.5-8.1-58.6-8.1-58.6l7.6,74.5c0,0,27.6,1.3,67.1-15.9c13.7-6.1,31-21.6,38.2-28.5c2-2,2.7-5.2,1.3-7.6
		C1038.9,923.4,995.2,837.4,957.4,815z"/>
	<path class="st12" d="M764.6,707.6v-26.7H856v26.7c58.1-18.4,101.3-71.2,105.3-134.5c-4.9-79-70.5-141.7-150.9-141.7
		c-80.2,0-145.9,62.6-150.9,141.7C663.3,636.5,706.2,689.2,764.6,707.6z"/>
	<path class="st13" d="M810.1,714.8c-15.9,0-31.2-2.5-45.6-7v28.3c14.4,4.5,30.1,4.7,46.3,3.1c21.3-2,30.5-6.1,44.9-12.3v-19.1
		C841.4,712.3,826.1,714.8,810.1,714.8z"/>
	<path class="st0" d="M680.4,1140.1c0,0,74.5,12.6,126.6,12.6c55.2,0,123.5-7.9,123.5-7.9s6.1,39.3,8.5,47.8
		c2.5,8.5-45.1,25.6-130,23.8c-111.1-2-137.6-18-137.6-22.5C671.2,1190.8,680.4,1140.1,680.4,1140.1z"/>
	<g>
		<path class="st14" d="M966.2,1218.4c68.9,137,101.3,222.9,119.7,406.6c15.5,154.5-4,360.8-7.2,478.7c0,3.6-0.9,7.2-2.9,10.3
			c-5.6,9-41.5,16.4-51.4,17.1c-49.8,3.4-96.1-3.8-100.6-21.3c-25.6-103.7-45.6-213.1-59.7-321.5c-11.7-89.8-25.6-189.9-33.5-263.8
			c-0.7-6.1-9.7-6.3-10.3,0c-1.3,12.3-2.9,81.3-4.7,101.7c-4.9,57.9-14.6,115-24,172.4c-14.8,91.2-50.1,219.8-76.8,306.5
			c-1.8,5.8-7.9,13.9-14.6,15c-11.9,1.8-40.4,4.3-55.5,3.1c-22.2-1.8-68.9-8.3-71.4-19.3c-33.7-140.3-34.8-410.9,13.9-692.2
			c11.7-66.9,38.6-141.7,63.3-186.6c0,0,79.7,15.7,152.9,15.5C891.6,1240.2,966.2,1218.4,966.2,1218.4z"/>
	</g>
	<g>
		<path class="st15" d="M352.1,386.6l-99-31.9c-5.8-2-9.2-8.3-7.4-14.4l20.9-64.7c2-5.8,8.3-9.2,14.4-7.4l99,31.9
			c5.8,2,9.2,8.3,7.4,14.4l-20.9,64.7C364.5,385.2,358,388.6,352.1,386.6z"/>
		<path class="st15" d="M398.2,332.5c-4,0-7.6,2.7-8.8,6.5l-3.6,10.8l-3.6,10.8c-1.1,3.8,0,8.1,3.4,10.3l26.7,20.2
			c5.2,4,12.8,1.6,14.6-4.7l7-21.3l7-21.3c2-6.3-2.7-12.6-9.2-12.3L398.2,332.5z"/>
	</g>
	<path class="st14" d="M671.2,1194.2c0,0-8.8,2-13.9,11s-6.5,19.8-6.5,19.8s57.7,17.1,166.8,20c105.7,2.7,148.6-26.5,148.6-26.5
		s-3.8-11.9-12.8-17.1c-9-5.2-14.8-8.8-14.8-8.8s-33,29.4-133.8,22.2C704.2,1207.4,671.2,1194.2,671.2,1194.2z"/>
	<g>
		<g>
			
				<rect x="185.1" y="546" transform="matrix(0.9973 -7.277586e-02 7.277586e-02 0.9973 -46.8178 16.4536)" class="st16" width="34.6" height="209.5"/>
			
				<rect x="179.5" y="575.1" transform="matrix(0.9973 -7.277586e-02 7.277586e-02 0.9973 -41.4547 15.0229)" class="st17" width="11.9" height="2.5"/>
			
				<rect x="181.3" y="598.5" transform="matrix(0.9973 -7.277586e-02 7.277586e-02 0.9973 -43.1491 15.2156)" class="st17" width="11.9" height="2.5"/>
			
				<rect x="183.1" y="621.8" transform="matrix(0.9973 -7.277586e-02 7.277586e-02 0.9973 -44.8436 15.4082)" class="st17" width="11.9" height="2.5"/>
			
				<rect x="184.6" y="645.2" transform="matrix(0.9973 -7.277586e-02 7.277586e-02 0.9973 -46.5386 15.5845)" class="st17" width="11.9" height="2.5"/>
			
				<rect x="186.4" y="668.8" transform="matrix(0.9973 -7.277586e-02 7.277586e-02 0.9973 -48.2494 15.7777)" class="st17" width="11.9" height="2.5"/>
			
				<rect x="188" y="692.1" transform="matrix(0.9973 -7.277586e-02 7.277586e-02 0.9973 -49.9445 15.954)" class="st17" width="11.9" height="2.5"/>
			
				<rect x="189.8" y="715.5" transform="matrix(0.9973 -7.277586e-02 7.277586e-02 0.9973 -51.6389 16.1466)" class="st17" width="11.9" height="2.5"/>
		</g>
		<g>
			
				<rect x="169.2" y="617.6" transform="matrix(0.985 -0.1724 0.1724 0.985 -118.2149 41.581)" class="st14" width="22.2" height="167.5"/>
			<polygon class="st4" points="176.8,616.9 154.8,620.7 158.4,589.3 162.9,588.4 			"/>
			<polygon class="st18" points="159.7,603.7 162.9,601.7 165.3,601.9 168.7,600.3 162.9,588.4 158.4,589.3 156.8,601.9 			"/>
		</g>
		<path class="st19" d="M227.8,751.2L227.8,751.2c-3.8-0.7-6.3-4.3-5.8-8.1L239,632.9c0.2-0.9,0.4-1.8,0.7-2.7l9.9-27.8
			c1.3-3.1,4.7-5.2,8.1-4.5l1.6,0.2c3.4,0.7,5.8,3.8,5.8,7.2l-2.2,29.4c0,0.9-0.2,1.8-0.4,2.9l-26.3,108.2
			C235.2,749.6,231.6,752.1,227.8,751.2z"/>
		<g>
			<g>
				<rect x="213.8" y="826.6" class="st20" width="143" height="47.8"/>
				<polygon class="st18" points="362.9,823.3 362.9,826.9 213.6,826.9 213.6,874.7 362.9,874.7 362.9,878.3 56,878.3 56,823.3 				
					"/>
			</g>
			<g>
				<path class="st21" d="M168.9,960.2h211.3V883H168.9c-10.6,0-18.9,8.5-18.9,18.9v39.3C149.8,951.7,158.4,960.2,168.9,960.2z"/>
				<path class="st19" d="M43.9,878.3h345.8c1.3,0,2.5,1.1,2.5,2.5l0,0c0,1.3-1.1,2.5-2.5,2.5h-42.4l0,0H188.7
					c-21.3,0-38.6,17.3-38.6,38.6l0,0c0,21.3,17.3,38.6,38.6,38.6h195.8l0,0h5.2c1.3,0,2.5,1.1,2.5,2.5l0,0c0,1.3-1.1,2.5-2.5,2.5
					H43.9c-21.3,0-38.6-17.3-38.6-38.6v-9.7C5.3,895.6,22.5,878.3,43.9,878.3z"/>
				<rect x="179.7" y="895.6" class="st22" width="200.5" height="2.7"/>
				<rect x="165.3" y="927.2" class="st22" width="214.9" height="2.7"/>
				<rect x="191.6" y="943.8" class="st22" width="188.6" height="2.7"/>
				<rect x="171.8" y="912.4" class="st22" width="208.6" height="2.7"/>
			</g>
			<g>
				<g>
					<path class="st23" d="M216.3,821.2H84.7v-27.6h131.6c3.8,0,6.7,2.9,6.7,6.7v13.9C223,818.1,220.1,821.2,216.3,821.2z"/>
					<path class="st24" d="M298,791.6H79.1c-0.4,0-0.9,0.4-0.9,0.9l0,0c0,0.4,0.4,0.9,0.9,0.9h129.8c7.6,0,13.7,6.3,13.7,13.7l0,0
						c0,7.6-6.3,13.7-13.7,13.7H79.1c-0.4,0-0.9,0.4-0.9,0.9l0,0c0,0.4,0.4,0.9,0.9,0.9H298c7.6,0,13.7-6.3,13.7-13.7v-4
						C311.9,797.7,305.7,791.6,298,791.6z"/>
				</g>
			</g>
		</g>
		<path class="st15" d="M161.5,676h96.1c2.5,0,4.5,2.2,4,4.7l-13.9,110.9h-77l-13.5-110.9C157,678.2,159,676,161.5,676z"/>
		<path class="st25" d="M259.4,597.4l-1.6-0.2c-3.6-0.7-7,1.1-8.3,4.5l-10.1,28.3c-0.2,0.4-0.2,0.7-0.2,1.1
			c3.1,2.7,7.2,4.7,11.9,5.4c4.3,0.7,8.3,0.4,11.7-0.7c0-0.4,0.2-0.7,0.2-1.1l2.2-29.9C265.5,601.2,263,598.3,259.4,597.4z"/>
		<path class="st26" d="M259.9,554.7c0.9-1.8,3.6-1.8,4.5,0c1.6,3.1,3.6,7,5.2,9.7c2.7,4.7,4,15.7,2.7,20.9
			c-1.6,6.3-6.1,12.8-7.4,14.8c-0.2,0.4-0.7,0.7-1.1,0.9c-1.3,0.4-3.8,0.9-7.2,0.2c-4.7-1.1-5.2-4.3-5.2-4.3s-2.7-10.3-2.2-16.6
			c0.4-6.3,3.8-14.4,5.4-15.7C255.1,563.5,257.8,558.6,259.9,554.7z"/>
	</g>
	<path class="st26" d="M631.9,2160.3c31.4,0.4,51.9-9.4,51.9-9.4s12.8,27.2,15.3,41.3c2.5,14.1,9.9,62-1.1,70.9
		c-11.9,9.9-9.7,7.2-24.9,13.7c-21.3,9-30.5,4.7-59.5,19.5c-10.8,5.6-57.5,48.9-104.6,53c-39.7,3.4-50.3-15.7-55-26.3
		s3.8-31,31.9-51.9c34.1-25.4,68.3-61.7,75.2-70.9c21.1-28.3,30.5-54.3,30.5-54.3S599.6,2159.6,631.9,2160.3z"/>
	<path class="st26" d="M1008.4,2163.4c-31.4,0.4-50.3-9.9-50.3-9.9s-14.1,20.7-19.1,47.1c-2.5,14.1-7.6,56.6,3.4,65.8
		c11.9,9.9,9.7,7.2,24.9,13.7c21.3,9,30.5,4.7,59.5,19.5c10.8,5.6,57.3,49.4,104.6,53c28.7,2.2,50.3-15.7,55-26.3
		c4.7-10.6,5.2-32.1-30.3-55.7c-35.5-23.6-77.2-61.1-82.6-71.4c-8.3-15.7-24.9-50.5-24.9-50.5S1040.7,2162.7,1008.4,2163.4z"/>
	<g>
		<path class="st15" d="M1416.1,620.7L1416.1,620.7c-22.5,6.1-45.6-7.2-51.6-29.4l-10.8-39.5c-6.1-22.5,7.2-45.6,29.4-51.6l0,0
			c22.5-6.1,45.6,7.2,51.6,29.4l10.8,39.5C1451.6,591.3,1438.6,614.5,1416.1,620.7z"/>
		<path class="st15" d="M1422.6,645c-36.8,10.1-74.8-11.7-84.9-48.5l-1.3-4.9c-1.1-4.3,1.3-8.8,5.6-9.9c4.3-1.1,8.8,1.3,9.9,5.6
			l1.3,4.9c7.6,28.1,36.8,44.9,65.1,37c28.1-7.6,44.9-36.8,37-65.1l-1.3-4.9c-1.1-4.3,1.3-8.8,5.6-9.9c4.3-1.1,8.8,1.3,9.9,5.6
			l1.3,4.9C1481.2,596.9,1459.5,634.9,1422.6,645z"/>
		<path class="st15" d="M1470.9,655.5c4-1.1,5.4-5.8,2.7-9c-13.2-15-34.4-22.2-54.8-16.6c-20.7,5.6-35,22.5-38.8,42.2
			c-0.7,4,2.9,7.4,7,6.5L1470.9,655.5z"/>
	</g>
	<g>
		<path class="st24" d="M1212,855.8c8.1-17.1,30.3-31.7,47.1-30.3c16.8,1.3,11.5,1.8,16.8,1.3c5.4-0.4,13.7-6.1,24.9-2.7
			c12.6,3.8,39.1,17.7,39.5,48.7c0.4,26.5-18.9,56.8-53.9,63.8s-58.6-6.1-69.2-21.1C1205.3,898.2,1204.2,872.2,1212,855.8z"/>
		<path class="st5" d="M1266.6,847.5c0,0-2.7-39.7,13.5-56.6c18-18.6,41.5-36.1,39.7-24.7c-0.4,2.7,3.4,41.1-7.4,55.5
			C1296,843.7,1266.6,847.5,1266.6,847.5z"/>
		<path class="st27" d="M1262.3,845.9c0,0-3.1-17.1-6.1-26.7c-6.3-19.8-10.3-29.2-10.3-29.2l17.5-3.8c0,0,6.5,23.3,7.6,32.3
			c2.2,15.9,0.9,26.5,0.9,26.5s-2.2,3.6-5.4,3.1C1263,848.2,1262.3,845.9,1262.3,845.9z"/>
		
			<ellipse transform="matrix(0.9852 -0.1715 0.1715 0.9852 -116.5895 226.8584)" class="st28" cx="1254.7" cy="788.2" rx="9" ry="4.3"/>
	</g>
	<path class="st29" d="M1593.7,964.9h-408.6c-3.6,0-6.5-2.9-6.5-6.5v-16.2c0-3.6,2.9-6.5,6.5-6.5h408.4c3.6,0,6.5,2.9,6.5,6.5v16.2
		C1600,962,1597.1,964.9,1593.7,964.9z"/>
	<g>
		<path class="st30" d="M1386.3,931h-89.4v-31.4h89.4c2.5,0,4.3,2,4.3,4.3v22.7C1390.8,929,1388.7,931,1386.3,931z"/>
		<path class="st18" d="M1547.2,894.7h-177.4H1292h-2.5c-1.3,0-2.5,1.1-2.5,2.5c0,1.3,1.1,2.5,2.5,2.5h7.4l0,0h84.9
			c4.9,0,8.8,4,8.8,8.8v13.9c0,4.9-4,8.8-8.8,8.8h-19.3l0,0h-72.3c-1.3,0-2.5,1.1-2.5,2.5c0,1.3,1.1,2.5,2.5,2.5h1.8h78.4h176.9
			c4.9,0,8.8-4,8.8-8.8v-23.6C1556,898.5,1552.2,894.7,1547.2,894.7z"/>
		<path class="st23" d="M1429.8,892.4h-144.4v-30.3h144.4c4.3,0,7.6,3.4,7.6,7.6v15C1437.4,889,1434.1,892.4,1429.8,892.4z"/>
		<path class="st31" d="M1520.1,859.9h-240.9c-0.7,0-1.1,0.4-1.1,1.1l0,0c0,0.7,0.4,1.1,1.1,1.1H1422c8.3,0,15.3,6.7,15.3,15.3l0,0
			c0,8.3-6.7,15.3-15.3,15.3h-142.8c-0.7,0-1.1,0.4-1.1,1.1l0,0c0,0.7,0.4,1.1,1.1,1.1h240.7c8.3,0,15.3-6.7,15.3-15.3v-4.5
			C1535.1,866.6,1528.4,859.9,1520.1,859.9z"/>
		<path class="st32" d="M1395.2,883.4h-110v-1.3h110c0.4,0,0.7,0.2,0.7,0.7l0,0C1396.1,883.2,1395.7,883.4,1395.2,883.4z"/>
		<path class="st32" d="M1420.6,873.5h-135.2v-1.3h135.2c0.4,0,0.7,0.2,0.7,0.7l0,0C1421.3,873.1,1421.1,873.5,1420.6,873.5z"/>
	</g>
	<g>
		
			<ellipse transform="matrix(0.4566 -0.8897 0.8897 0.4566 291.8337 1263.6881)" class="st8" cx="1180.4" cy="392.9" rx="18" ry="46.9"/>
		<g>
			<g>
				<path class="st4" d="M1146.9,356.9c8.5-15.5,15.7-31.4,19.1-48.7c7.4-37.3-2.7-80.6,21.1-110c17.1-21.3,47.6-27.8,74.5-24
					c33,4.7,64.4,24,79.5,53.7c15,29.6,11.2,69.2-12.6,92.3c-20,19.5-49.8,25.8-70.7,44.2c-11.7,10.3-20,24-28.7,37l-2.9,4
					C1162.4,398.5,1146.9,356.9,1146.9,356.9z"/>
			</g>
		</g>
		<path class="st33" d="M1259.6,299.2c-2.7-9.9-11.2-9.4-18.9-6.1c-1.8-5.4-4.7-12.3-10.3-14.6c-6.3-2.5-13.5,1.8-18.4,5.6
			c-10.8,8.3-19.1,20.4-24,33c-4.9,12.6-7.4,26-11.9,38.8c-1.8,5.2,6.5,7.4,8.3,2.2c5.6-16.2,7.9-33.9,16.8-48.7
			c4.9-8.3,12.1-18,21.3-21.8c2.9-1.3,4.9-1.6,7,1.3c1.6,2.2,2.7,4.9,3.4,7.4c0,0.2,0.2,0.4,0.2,0.7c-1.1,0.7-2,1.3-2.9,2
			c-8.8,6.5-20.4,18.2-20.2,30.1c0,5.4,3.4,9.9,9,10.3c6.1,0.4,12.1-4.3,15.9-8.8c7.2-8.3,9.4-19.1,7.9-29.6c2-1.1,3.8-1.8,5.6-2
			c5.4-0.4,2.9,8.3,2.2,11.2c-2.7,9.7-8.3,18.2-13.7,26.5c-4,6.3-7.6,13-12.6,18.6c-5.4,6.3-12.6,10.6-19.3,15
			c-4.7,2.9-0.4,10.3,4.3,7.4c8.1-5.2,16.4-10.3,22.5-17.7c6.5-7.9,11.9-16.8,17.1-25.6C1254.5,325.1,1262.8,310.7,1259.6,299.2z
			 M1234,313.8c-1.1,4.5-3.1,8.8-6.3,12.1c-1.8,2-10.1,8.8-9.4,2.5c0.4-3.8,3.4-7.9,5.6-11c2.9-4,6.7-7.6,10.8-10.8
			C1234.7,308.9,1234.7,311.4,1234,313.8z"/>
		<path class="st33" d="M1172.1,409c-20.9-10.6-35-25.4-34.4-34.6l0,0l-10.6,37.3c-3.6,7.2,8.5,20.7,27.2,30.3
			c18.6,9.7,36.8,11.7,40.4,4.5c0.2-0.4,0.2-0.7,0.4-1.1l0,0l24.9-28.5l0,0C1213.2,422.7,1193,419.8,1172.1,409z"/>
	</g>
	<g>
		<path class="st9" d="M940.1,122.8c-0.2,0-0.4,0-0.7-0.2c-0.9-0.4-1.3-1.6-0.9-2.5c1.6-3.6,3.4-7,5.8-10.1c0.7-0.9,1.8-1.1,2.7-0.4
			c0.9,0.7,1.1,1.8,0.4,2.7c-2.2,2.9-4,6.1-5.4,9.4C941.7,122.3,941,122.8,940.1,122.8z"/>
		<path class="st9" d="M1243.5,238.4c-0.2,0-0.4,0-0.7-0.2l-2.7-0.9c-6.1-2.2-12.3-4.7-19.1-7.4c-0.9-0.4-1.3-1.6-1.1-2.5
			c0.4-0.9,1.6-1.3,2.5-1.1c6.5,2.7,12.8,5.2,18.9,7.4l2.7,0.9c0.9,0.4,1.6,1.6,1.1,2.5C1245,237.9,1244.4,238.4,1243.5,238.4z
			 M1200.8,220.4c-0.2,0-0.7,0-0.9-0.2c-7.4-3.8-13.9-7.9-20.2-12.1c-0.9-0.7-1.1-1.8-0.4-2.7c0.7-0.9,1.8-1.1,2.7-0.4
			c6.1,4.3,12.3,8.1,19.8,11.7c0.9,0.4,1.3,1.6,0.9,2.5C1202.2,220,1201.5,220.4,1200.8,220.4z M1163.1,193.7
			c-0.4,0-0.9-0.2-1.3-0.7c-5.6-5.6-10.6-11.9-14.8-18.4c-0.7-0.9-0.2-2,0.7-2.7s2-0.2,2.7,0.7c4,6.3,8.8,12.1,14.4,17.7
			c0.7,0.7,0.7,2,0,2.7C1164,193.5,1163.5,193.7,1163.1,193.7z M1138.2,154.9c-0.7,0-1.6-0.4-1.8-1.3c-2.7-7.4-4.7-15-5.8-22.9
			c-0.2-1.1,0.7-2,1.6-2.2c1.1-0.2,2,0.7,2.2,1.6c1.1,7.4,2.9,14.8,5.6,22c0.4,0.9-0.2,2-1.1,2.5
			C1138.6,154.9,1138.4,154.9,1138.2,154.9z M1150.7,130.4c-4.3,0-8.5-0.2-12.8-0.9c-1.1-0.2-1.8-1.1-1.6-2.2s1.1-1.8,2.2-1.6
			c4,0.7,8.3,0.9,12.3,0.9l0,0c3.6,0,7-0.2,10.3-0.7c1.1-0.2,2,0.7,2.2,1.6s-0.7,2-1.6,2.2C1157.9,130.2,1154.3,130.4,1150.7,130.4
			L1150.7,130.4z M1115.7,123.7c-0.2,0-0.4,0-0.7,0c-6.5-2.2-13-5.2-21.6-9c-0.9-0.4-1.3-1.6-0.9-2.5c0.4-0.9,1.6-1.3,2.5-0.9
			c8.3,3.8,14.8,6.7,21.3,9c0.9,0.4,1.6,1.3,1.1,2.5C1117.3,123.2,1116.4,123.7,1115.7,123.7z M1183.3,122.8c-0.7,0-1.3-0.4-1.6-0.9
			c-0.4-0.9-0.2-2,0.7-2.7c3.6-2,6.7-4.3,9.7-7c2.5-2.2,4.7-4.9,6.5-8.1c0.4-0.9,1.8-1.1,2.7-0.7c0.9,0.4,1.1,1.8,0.7,2.7
			c-2,3.4-4.5,6.3-7.2,8.8c-3.1,2.9-6.5,5.4-10.3,7.4C1184,122.8,1183.5,122.8,1183.3,122.8z M1132.1,109.3L1132.1,109.3
			c-1.3-0.2-2-1.1-1.8-2c0.9-8.3,3.1-15.9,6.5-22.9c0.4-0.9,1.6-1.3,2.5-0.9c0.9,0.4,1.3,1.6,0.9,2.5c-3.1,6.5-5.4,13.7-6.3,21.6
			C1133.9,108.6,1133,109.3,1132.1,109.3z M1073.3,104.8c-0.2,0-0.4,0-0.9-0.2c-2.5-1.1-4.9-2.2-7.4-3.4c-4.9-2.2-9.4-4-13.7-5.8
			c-0.9-0.4-1.6-1.6-1.1-2.5c0.4-0.9,1.6-1.6,2.5-1.1c4.5,1.8,9,3.6,13.9,5.8c2.5,1.1,4.9,2.2,7.4,3.4c0.9,0.4,1.3,1.6,0.9,2.5
			C1074.6,104.4,1074,104.8,1073.3,104.8z M962.6,97.4c-0.7,0-1.3-0.2-1.6-0.9c-0.7-0.9-0.2-2,0.7-2.7c6.5-4.3,13.9-7.4,21.8-9.4
			c1.1-0.2,2,0.4,2.2,1.3c0.2,1.1-0.4,2-1.3,2.2c-7.4,2-14.4,4.9-20.7,9C963.5,97.4,963,97.4,962.6,97.4z M1030,88.6
			c-0.2,0-0.2,0-0.4,0c-7.9-1.8-15.5-2.7-22.7-2.9c-1.1,0-1.8-0.9-1.8-2s0.9-1.8,1.8-1.8l0,0c7.4,0.2,15.3,1.1,23.3,2.9
			c1.1,0.2,1.6,1.3,1.3,2.2C1031.5,88.2,1030.8,88.6,1030,88.6z M1206,85c-1.1,0-1.8-0.9-1.8-1.8c-0.2-6.5-2.7-12.1-6.5-16.2
			c-0.9-0.9-1.8-1.8-2.7-2.5c-0.9-0.7-0.9-1.8-0.4-2.7c0.7-0.9,1.8-0.9,2.7-0.4c1.1,0.9,2.2,1.8,3.1,2.9c4.7,4.9,7.4,11.2,7.6,18.6
			C1208,84.1,1207.1,85,1206,85C1206.2,85,1206,85,1206,85z M1152.8,69.1c-0.7,0-1.1-0.2-1.6-0.7c-0.7-0.9-0.4-2,0.4-2.7
			c6.5-4.9,14.4-8.3,22-9.4c1.1-0.2,2,0.7,2.2,1.6c0.2,1.1-0.7,2-1.6,2.2c-7.2,0.9-14.4,4-20.2,8.8
			C1153.7,69.1,1153.2,69.1,1152.8,69.1z"/>
		<path class="st9" d="M1274.5,253.4c-0.4,0-0.9-0.2-1.3-0.4c-2-1.8-4.9-3.8-9-5.8c-0.9-0.4-1.3-1.6-0.9-2.5
			c0.4-0.9,1.6-1.3,2.5-0.9c4.3,2.2,7.4,4.3,9.9,6.3c0.7,0.7,0.9,2,0.2,2.7C1275.6,253.2,1274.9,253.4,1274.5,253.4z"/>
	</g>
	<g>
		<path class="st34" d="M1257.6,12.1c12.6,42.7,11.5,82.2,10.3,126c-0.2,12.1,39.3,8.3,42-2.2c10.6-42.2,3.1-87.8-10.3-128.4
			C1295.3-5.9,1254.2,0.6,1257.6,12.1L1257.6,12.1z"/>
		<path class="st34" d="M1426.2,96c-19.1,34.4-43.1,62.9-67.6,93c-10.8,13.2,26.9,11,33.9,4.7c30.1-26.5,53.4-62.2,71.4-97.7
			C1469.3,85.7,1431.8,85.7,1426.2,96L1426.2,96z"/>
		<path class="st34" d="M1419.5,275c26.9,0.7,53.9,2,80.6,3.6c9.7,0.7,24.7-3.1,27.6-13.9c2.9-10.8-9.9-16.6-18.4-17.1
			c-26.9-1.6-53.7-2.7-80.6-3.6c-9.7-0.2-24.5,2.9-27.6,13.9C1398.2,268.7,1410.7,274.8,1419.5,275L1419.5,275z"/>
	</g>
	<path class="st35" d="M936.1,920.7c0,0,5.8,33.2,6.3,49.4c0.2,9.9,0,25.6,0,25.6s7.4,0,11.2-0.4c3.8-0.2,8.3-1.1,8.3-1.1
		s-4.5-14.8-9.2-29.6C948.2,951.5,936.1,920.7,936.1,920.7z"/>
	<path class="st35" d="M678.1,918.9c0,0-8.1,23.1-11.7,37.9c-2.7,11.2-1.6,21.1-2.2,23.8c-0.9,4.7-5.6,17.7-7.9,23.8
		c-0.7,1.8-2.7,2.9-4.5,2.5c-3.1-0.7-7.9-1.8-11.5-2.9c-5.8-1.8-9.9-3.6-9-3.1c0,0,12.6-18,21.6-33.2
		C660.6,954.6,678.1,918.9,678.1,918.9z"/>
	<path class="st11" d="M940.8,1224c51,101,82.2,211,99,322.6c18,118.1,19.5,238.2,13.9,357.4c-3.1,68.9-9,137.6-15.5,206.3
		c-0.7,7.9,11.5,7.6,12.1,0c11.7-123.3,20.9-247,17.7-370.7c-2.9-115.6-16.6-231.5-47.8-342.8c-17.3-61.5-40.2-121.7-68.9-178.9
		C947.8,1211,937.2,1217.1,940.8,1224L940.8,1224z"/>
	<path class="st11" d="M662.9,1226.5c-44.5,102.6-69.2,212.2-82.6,322.9c-13.9,113.8-17.3,229.2-15.9,343.7
		c0.9,68,4.3,135.8,12.1,203.4c0.9,7.6,13,7.9,12.1,0c-13.7-118.1-14.4-237.3-10.1-356.1c3.8-110.7,13.2-221.8,37.9-330.3
		c13.7-60.6,32.3-120.6,57-177.6C676.3,1225.6,666,1219.3,662.9,1226.5L662.9,1226.5z"/>
	<path class="st19" d="M389.4,960.2h-5.2h-16.8c-1.1,1.8-2.5,3.4-4,4.7h25.8c1.3,0,2.5-1.1,2.5-2.5l0,0
		C391.9,961.3,390.8,960.2,389.4,960.2z"/>
	<path class="st19" d="M389.4,883c1.3,0,2.5-1.1,2.5-2.5c0-1.3-1.1-2.5-2.5-2.5h-17.5v4.7L389.4,883L389.4,883z"/>
	<path class="st13" d="M357.7,973.5c-10.3-2.2-20.7-5.2-30.8-8.5H106.3v0.7c0,5.2,1.8,9.9,4.9,14.4h233.7
		C349.7,980,353.9,977.7,357.7,973.5z"/>
	<path class="st13" d="M1217.9,973.2c3.8,4.3,8.3,6.7,13,6.7h244.7c1.1-2.9,1.8-5.8,1.6-9.2v-5.8h-229.5
		C1237.9,968.1,1228,971,1217.9,973.2z"/>
	<path class="st36" d="M807,1152.6c-52.1,0-126.6-12.6-126.6-12.6s-1.1,5.8-2.5,13.7c33.7,10.6,79.3,15.9,129.3,14.1
		c47.1-1.8,89.8-10.1,122.1-22c0.4-0.2,0.7-0.4,1.1-0.7c0-0.2,0-0.4,0-0.4S862,1152.8,807,1152.6z"/>
</g>
</svg>
