<?xml version="1.0" encoding="UTF-8"?>
<!DOCTYPE svg PUBLIC "-//W3C//DTD SVG 1.1//EN" "http://www.w3.org/Graphics/SVG/1.1/DTD/svg11.dtd">
<svg xmlns="http://www.w3.org/2000/svg" xml:space="preserve" width="324px" height="40px" version="1.1" style="shape-rendering:geometricPrecision; text-rendering:geometricPrecision; image-rendering:optimizeQuality; fill-rule:evenodd; clip-rule:evenodd"
viewBox="0 0 324 40"
 xmlns:xlink="http://www.w3.org/1999/xlink">
 <defs>
  <style type="text/css">
  </style>
 </defs>
<path class="fil1" d="M2.334 25.323h3.113c1.284 0 2.335 1.042 2.335 2.316v3.088c0 1.274-1.05 2.317-2.335 2.317H2.334C1.051 33.044 0 32 0 30.727V27.64c0-1.274 1.05-2.316 2.334-2.316z">
</path>
<path class="fil1" d="M174.601 28.546v-4.535c0-.618-.098-1.043-.292-1.236-.195-.193-.603-.29-1.206-.29h-10.875c-2.549 0-3.813-1.293-3.813-3.898V12.95c0-2.586 1.264-3.88 3.813-3.899h14.551c2.549 0 3.813 1.293 3.813 3.899v3.01h-6.089v-2.508c0-.656-.097-1.081-.291-1.255-.195-.174-.604-.27-1.207-.27h-6.867c-.622 0-1.012.096-1.206.27-.195.174-.292.598-.292 1.255v4.632c0 .656.097 1.08.292 1.255.194.173.603.27 1.206.27h10.836c2.548 0 3.813 1.293 3.813 3.88v5.558c0 2.586-1.265 3.88-3.813 3.88h-14.591c-2.548 0-3.813-1.294-3.813-3.88v-3.01h6.09v2.508c0 .618.097 1.043.291 1.236.195.192.603.289 1.207.289h6.964c.603 0 1.012-.097 1.206-.29.195-.192.273-.617.273-1.235zM150.575 9.014h4.202v3.204h-5.311c-2.218 0-3.327 1.235-3.327 3.686v17.024h-6.225V9.052h6.225v2.953c.603-1.988 2.082-2.991 4.436-2.991zM112.639 9.052h16.536c2.549 0 3.813 1.293 3.813 3.899v9.207h-17.936v6.35c0 .656.097 1.08.272 1.254.175.174.584.27 1.226.27h8.754c.622 0 1.012-.096 1.206-.27.195-.174.292-.598.292-1.254v-2.703h6.089v3.243c0 2.586-1.264 3.88-3.813 3.88h-16.439c-2.548 0-3.813-1.294-3.813-3.88V12.951c0-2.606 1.265-3.899 3.813-3.899zm2.413 10.191h11.847v-5.752c0-.617-.097-1.042-.292-1.235-.194-.193-.603-.29-1.206-.29h-8.851c-.642 0-1.051.097-1.226.29-.175.193-.272.598-.272 1.235v5.752zM95.228 0h6.245v32.928h-6.245v-1.525c-.39 1.023-1.284 1.525-2.704 1.525H81.61c-2.549 0-3.813-1.294-3.813-3.88V12.951c0-2.586 1.264-3.88 3.813-3.899h10.914c1.42 0 2.315.502 2.704 1.525V0zM85.52 30.032h8.015c.623 0 1.05-.115 1.304-.366.253-.251.389-.657.389-1.255V13.588c0-.598-.136-1.004-.39-1.255-.252-.25-.7-.366-1.303-.366H85.52c-.642 0-1.05.096-1.225.29-.175.192-.273.598-.273 1.234v15.017c0 .656.097 1.08.273 1.254.175.174.583.27 1.225.27zM50.814 9.052H67c2.548 0 3.813 1.293 3.813 3.899v16.097c0 2.586-1.265 3.88-3.813 3.88H50.814c-2.548 0-3.813-1.294-3.813-3.88V12.951c0-2.606 1.265-3.899 3.813-3.899zm13.832 19.436V13.491c0-.617-.097-1.042-.272-1.235-.175-.193-.584-.29-1.226-.29h-8.463c-.603 0-1.011.097-1.206.29-.194.193-.291.598-.291 1.235v15.017c0 .656.097 1.08.291 1.254.195.174.603.27 1.206.27h8.463c.642 0 1.05-.096 1.226-.27.175-.193.272-.598.272-1.274zM40.815 12.893h-6.517V6.736c0-.656-.098-1.08-.273-1.254-.175-.174-.583-.27-1.225-.27h-9.475c-.642 0-1.05.096-1.225.27-.175.173-.273.598-.273 1.254v21.752c0 .657.078 1.081.273 1.255.194.174.583.27 1.225.27H32.8c.642 0 1.05-.096 1.225-.27.175-.174.273-.598.273-1.255v-6.157h6.517v6.698c0 2.586-1.265 3.88-3.813 3.88H19.104c-2.549 0-3.813-1.294-3.813-3.88V6.196c0-2.587 1.264-3.88 3.813-3.88h17.878c2.549 0 3.813 1.293 3.813 3.88v6.697h.02z">
</path>
<path class="fil1" d="M214.188 13.224h-6.571V7.137c0-.649-.097-1.055-.292-1.217-.162-.195-.568-.292-1.216-.292h-9.54c-.649 0-1.07.097-1.265.292-.162.162-.243.568-.243 1.217v21.524c0 .65.081 1.071.243 1.266.195.162.616.243 1.265.243h9.54c.648 0 1.054-.08 1.216-.243.195-.195.292-.617.292-1.266v-6.087h6.571v6.622c0 2.565-1.282 3.848-3.845 3.848h-18.008c-2.563 0-3.845-1.283-3.845-3.847V6.602c0-2.565 1.282-3.847 3.845-3.847h18.008c2.563 0 3.845 1.282 3.845 3.847v6.622zM228.208 30.17h8.079c.616 0 1.054-.113 1.314-.34.259-.26.389-.682.389-1.266V13.906c0-.584-.13-.99-.389-1.217-.26-.26-.698-.39-1.314-.39h-8.079c-.649 0-1.071.098-1.266.292-.162.195-.243.6-.243 1.218V28.66c0 .65.081 1.071.243 1.266.195.162.617.243 1.266.243zm9.782-20.744h6.278v23.617h-6.278v-1.51c-.389 1.007-1.298 1.51-2.725 1.51h-11c-2.563 0-3.845-1.282-3.845-3.846V13.273c0-2.565 1.282-3.847 3.845-3.847h11c1.427 0 2.336.503 2.725 1.51v-1.51zM278.415 9.426h10.075c2.563 0 3.845 1.282 3.845 3.847v19.77h-6.279V13.81c0-.617-.097-1.023-.292-1.218-.162-.194-.568-.292-1.217-.292h-7.203c-1.168 0-1.752.6-1.752 1.802v18.943h-6.327V13.809c0-.617-.097-1.023-.292-1.218-.194-.194-.6-.292-1.217-.292h-7.738c-1.136 0-1.703.536-1.703 1.607v19.137h-6.279V9.427h6.279v1.51c.389-1.007 1.297-1.51 2.725-1.51h10.707c1.882 0 3.067.682 3.553 2.045.39-1.363 1.428-2.045 3.115-2.045zM317.619 28.66V13.81c0-.617-.097-1.023-.292-1.218-.162-.194-.568-.292-1.217-.292h-8.468c-1.136 0-1.704.552-1.704 1.656v14.609c0 1.07.568 1.606 1.704 1.606h8.468c.649 0 1.055-.08 1.217-.243.195-.195.292-.617.292-1.266zm-8.955-19.234h11.389c2.563 0 3.844 1.282 3.844 3.847v15.924c0 2.564-1.281 3.847-3.844 3.847h-11.389c-1.428 0-2.336-.504-2.726-1.51v8.376h-6.278V9.426h6.23v1.704c.389-1.136 1.314-1.704 2.774-1.704z">
</path>
</svg>
