<?xml version="1.0" encoding="utf-8"?>
<!-- Generator: Adobe Illustrator 24.1.0, SVG Export Plug-In . SVG Version: 6.00 Build 0)  -->
<svg version="1.1" id="Layer_1" xmlns="http://www.w3.org/2000/svg" xmlns:xlink="http://www.w3.org/1999/xlink" x="0px" y="0px"
	 viewBox="0 0 3368.7 2000" style="enable-background:new 0 0 3368.7 2000;" xml:space="preserve">
<style type="text/css">
	.st0{fill:#110580;}
	.st1{fill:#D7D7E6;}
	.st2{fill:#C7645D;}
	.st3{fill:#2B31BA;}
	.st4{fill:#DADAED;}
	.st5{fill:#989BD7;}
	.st6{fill:#FFADB2;}
	.st7{fill:#EBDBCD;}
	.st8{fill:#FF7A82;}
	.st9{fill:#B3B6DE;}
	.st10{fill:#E8EAF7;}
	.st11{fill:#C5C6E3;}
	.st12{fill:#999BC9;}
	.st13{fill:#D8DBF2;}
	.st14{fill:#A7A9D6;}
	.st15{fill:#FFFFFF;}
	.st16{fill:#E8E8F7;}
	.st17{fill:#FDB62F;}
	.st18{fill:#64A7B0;}
	.st19{fill:#E8EBFF;}
	.st20{fill:#CFCFEB;}
</style>
<g id="Layer_2_1_">
	<g id="illustrations">
		<path class="st0" d="M1278.2,766.4c-2.9-1.3-4.8-4.2-4.8-7.4c0-4.4,3.6-8,8-8h39.3v-39.3c0-4.4,3.6-8,8-8s8,3.6,8,8v55.4h-55.4
			C1280.3,767.1,1279.2,766.8,1278.2,766.4z"/>
		<path class="st0" d="M471.5,765.9c-2.9-1.3-4.8-4.2-4.8-7.4c0-4.4,3.6-8,8-8h100.8c4.4,0,8,3.6,8,8c0,4.4-3.6,8-8,8H474.7
			C473.6,766.5,472.5,766.3,471.5,765.9z M673.2,765.9c-4.1-1.7-6-6.5-4.2-10.5c1.3-3,4.2-4.9,7.5-4.9h100.8c4.4,0,8,3.6,8,8
			c0,4.4-3.6,8-8,8H676.4C675.3,766.6,674.2,766.4,673.2,765.9L673.2,765.9z M874.9,765.9c-4.1-1.7-6-6.5-4.2-10.5
			c1.3-3,4.2-4.9,7.5-4.9h100.8c4.4,0,8,3.6,8,8c0,4.4-3.6,8-8,8H878.1c-1,0-2-0.1-2.9-0.4L874.9,765.9z M1076.5,765.9
			c-2.9-1.3-4.8-4.2-4.8-7.4c0-4.4,3.6-8,8-8h100.6c4.4,0,8,3.6,8,8c0,4.4-3.6,8-8,8h-100.6c-1.1,0.1-2.2,0-3.2-0.3V765.9z"/>
		<path class="st0" d="M318.5,766.5v-55.4c0-4.4,3.6-8,8-8c4.4,0,8,3.6,8,8v39.3h39.3c4.4,0,8,3.6,8,8c0,4.4-3.6,8-8,8H318.5z"/>
		<path class="st0" d="M323.4,624.8c-2.9-1.3-4.8-4.2-4.8-7.4v-93.7c0-4.4,3.6-8,8-8s8,3.6,8,8v93.7c0,4.4-3.6,8-8,8
			C325.5,625.5,324.4,625.3,323.4,624.8z M323.4,437.5c-2.9-1.3-4.8-4.2-4.8-7.4v-93.6c0-4.4,3.6-8,8-8s8,3.6,8,8v93.6
			c0,4.4-3.6,8-8,8C325.6,438.1,324.5,437.9,323.4,437.5L323.4,437.5z M323.4,250.3c-2.9-1.3-4.8-4.2-4.8-7.4v-93.7c0-4.4,3.6-8,8-8
			s8,3.6,8,8v93.7c0,4.4-3.6,8-8,8c-1,0-2-0.2-3-0.6L323.4,250.3z"/>
		<path class="st0" d="M323.7,62.9c-2.9-1.3-4.8-4.2-4.8-7.4V0.2h55.4c4.4,0,8,3.6,8,8s-3.6,8-8,8h-39.3v39.3c0,4.4-3.6,8-8,8
			C325.9,63.6,324.8,63.4,323.7,62.9z"/>
		<path class="st0" d="M472,15.7c-4.1-1.6-6.2-6.3-4.5-10.4c1.2-3.2,4.3-5.2,7.7-5.1H576c4.4,0,8,3.6,8,8s-3.6,8-8,8H475.2
			C474.1,16.3,473,16.1,472,15.7z M673.7,16.2c-4.4-0.9-7.3-5.2-6.4-9.6c0.9-4.4,5.2-7.3,9.6-6.4h100.8c4.4,0,8,3.6,8,8s-3.6,8-8,8
			H676.9C675.8,16.4,674.7,16.4,673.7,16.2z M875.2,16.2c-2.9-1.3-4.8-4.2-4.8-7.4c0-4.4,3.6-8,8-8h101.2c4.4,0,8,3.6,8,8
			s-3.6,8-8,8H878.5C877.4,16.9,876.2,16.7,875.2,16.2z M1076.9,16.2c-2.9-1.3-4.8-4.2-4.8-7.4c0-4.4,3.6-8,8-8h100.8
			c4.4,0,8,3.6,8,8s-3.6,8-8,8h-100.8C1079.1,16.9,1078,16.6,1076.9,16.2L1076.9,16.2z"/>
		<path class="st0" d="M1326,63.6c-2.9-1.3-4.8-4.2-4.8-7.4V16.9h-39.3c-4.4,0-8-3.6-8-8s3.6-8,8-8h55.4v55.6c0,4.4-3.6,8-8,8
			C1328.1,64.4,1327,64.1,1326,63.6z"/>
		<path class="st0" d="M1325.6,625.4c-2.9-1.3-4.8-4.2-4.8-7.4v-93.6c0-4.4,3.6-8,8-8s8,3.6,8,8v94c0,4.4-3.6,8-8,8
			C1327.7,626.4,1326.6,626,1325.6,625.4z M1325.6,438.2c-2.9-1.3-4.8-4.2-4.8-7.4v-93.4c0-4.4,3.6-8,8-8s8,3.6,8,8v93.4
			c0,4.4-3.6,8-8,8C1327.8,438.8,1326.7,438.6,1325.6,438.2L1325.6,438.2z M1325.6,250.8c-2.9-1.3-4.8-4.2-4.8-7.4v-93.6
			c0-4.4,3.6-8,8-8s8,3.6,8,8v93.6c0,4.4-3.6,8-8,8c-1,0-2-0.2-3-0.6L1325.6,250.8z"/>
		<path class="st1" d="M57.8,530.1l6.4-1c15.3-3.2,30.7,5.1,36.5,19.7l44.5,123.7c0.5,1.7,0.9,3.4,1.3,5.1
			c-15,12.6-33.1,20.9-52.4,24.1c-17.2,2.9-34.9,1.8-51.5-3.3c0-1.6-0.6-3.1-0.6-4.6l-9.7-131C31.5,547.1,42.4,533.2,57.8,530.1z"/>
		<path class="st2" d="M55.7,342.9c-3.1-5.4-10-7.2-15.4-4.1c-1.7,1-3.1,2.4-4.1,4.1c-6.7,13.5-15.7,31-22.4,42.6
			c-11.8,20.2-17.3,69.1-11.7,91c7.2,23.1,18.3,44.8,32.7,64.2c1.3,1.8,3.1,3.1,5.2,3.8c10.2,3,21.1,3.3,31.5,0.7
			c20.2-4.9,22.7-18.3,22.7-18.3s11.6-45.4,9.7-72.3c-1.8-26.8-16.9-62.7-23.2-69.1C71.5,371.9,63.2,357.6,55.7,342.9z"/>
		<path class="st3" d="M221.9,1168.5l-74.4-482.6c-0.3-2.7-0.9-5.4-1.8-8c-14.9,12.1-32.6,20.1-51.5,23.1c-17,2.9-34.4,1.8-50.9-3.1
			c0.2,3,0.7,6,1.4,8.9L159.8,1181c6.4,16.5,25,24.8,41.5,18.4C214,1194.5,222.3,1182.1,221.9,1168.5L221.9,1168.5z"/>
		
			<rect x="-150.5" y="688.4" transform="matrix(7.271596e-02 -0.9974 0.9974 7.271596e-02 -475.8579 1015.9606)" class="st4" width="917.9" height="151"/>
		
			<rect x="376.5" y="412.1" transform="matrix(7.271596e-02 -0.9974 0.9974 7.271596e-02 -82.7498 787.0959)" class="st5" width="10.8" height="51.9"/>
		
			<rect x="369.4" y="512" transform="matrix(6.982913e-02 -0.9976 0.9976 6.982913e-02 -188.0224 874.3687)" class="st5" width="10.9" height="52"/>
		
			<rect x="361.5" y="616.9" transform="matrix(7.271596e-02 -0.9974 0.9974 7.271596e-02 -300.9088 962.1158)" class="st5" width="10.8" height="51.9"/>
		
			<rect x="354.1" y="719.4" transform="matrix(7.271596e-02 -0.9974 0.9974 7.271596e-02 -409.9939 1049.7804)" class="st5" width="10.8" height="51.9"/>
		
			<rect x="346.7" y="821.9" transform="matrix(7.271596e-02 -0.9974 0.9974 7.271596e-02 -519.0733 1137.2904)" class="st5" width="10.8" height="51.9"/>
		
			<rect x="339.1" y="924.3" transform="matrix(7.271596e-02 -0.9974 0.9974 7.271596e-02 -628.2213 1224.7151)" class="st5" width="10.8" height="51.9"/>
		
			<rect x="331.6" y="1026.7" transform="matrix(7.271596e-02 -0.9974 0.9974 7.271596e-02 -737.3007 1312.2251)" class="st5" width="10.8" height="51.9"/>
		
			<rect x="37.5" y="936.7" transform="matrix(0.1724 -0.985 0.985 0.1724 -635.9359 1214.0206)" class="st6" width="734.1" height="97.6"/>
		<polygon class="st7" points="420.1,615.5 516.2,632.4 501.2,494.2 481.2,490.7 		"/>
		<polygon class="st8" points="495.2,557.9 481.4,548.4 469.8,549.9 455.8,542.5 481.2,490.7 501.2,494.2 507.2,549.8 		"/>
		<path class="st8" d="M487.4,874.2H66.5c-10-0.2-18.2,7.7-18.4,17.7c0,0.9,0,1.8,0.1,2.6l56.2,449.6c2.6,20.8,20.3,36.5,41.3,36.5
			h263.8c21,0,38.8-15.7,41.3-36.6l54.4-449.6c1.2-9.9-5.9-18.9-15.9-20C488.6,874.3,488,874.2,487.4,874.2z"/>
		<path class="st9" d="M840.4,134.9h1698.4c60.4,0,109.4,49,109.4,109.4v1073.1c0,60.4-49,109.4-109.4,109.4H840.4
			c-60.4,0-109.4-49-109.4-109.4V244.2C731.1,183.9,780,134.9,840.4,134.9z"/>
		<path class="st10" d="M832.6,203.9h1713.9c16,0,29,13,29,29v1071.9c0,16-13,29-29,29H832.6c-16,0-29-13-29-29V232.8
			C803.7,216.8,816.6,203.9,832.6,203.9z"/>
		<path class="st11" d="M2857.3,1944.8H521.9c-36.3-0.1-65.6-29.5-65.6-65.8c0-10.7,2.6-21.1,7.6-30.6l236.8-364.8
			c18.6-34.9,55-56.8,94.6-56.8h1788.5c39.6,0,76,21.8,94.7,56.8l236.8,364.8c16.9,32.1,4.7,71.8-27.4,88.7
			C2878.4,1942.2,2867.9,1944.8,2857.3,1944.8z"/>
		<path class="st12" d="M2922.6,1877.2c1.2,36.2-27.3,66.5-63.5,67.7c-0.7,0-1.4,0-2.1,0H521.9c-36.2,0-65.6-29.3-65.6-65.6
			c0-0.7,0-1.4,0-2.1l0,0v58.1l0,0c0.5,35.9,29.7,64.8,65.6,64.8h2335.4c35.8-0.2,64.9-29,65.4-64.8l0,0V1877.2L2922.6,1877.2z"/>
		<path class="st13" d="M2144.2,1897.3h-909.1c-11.6,0-21-9.4-21.1-21c0-3.5,0.9-6.9,2.5-10l36.1-116.9
			c5.9-11.2,17.6-18.3,30.4-18.2h813.8c12.7,0,24.4,7,30.4,18.2l35.7,116.9c5.5,10.2,1.7,23-8.6,28.5
			C2151.1,1896.4,2147.7,1897.3,2144.2,1897.3z"/>
		<path class="st14" d="M2477.6,1691H901.7c-13.7,0-24.9-11.1-24.9-24.8c0-4.1,1-8.1,2.9-11.8l66.4-138.3
			c7-13.4,20.8-21.7,35.9-21.6h1415.3c15,0,28.8,8.3,35.9,21.6l66.4,138c6.6,12.1,2.2,27.2-9.9,33.8
			C2486,1690,2481.8,1691.1,2477.6,1691z"/>
		<path class="st15" d="M803.7,304.2h1772l0,0v1000.5c0,16-12.9,28.9-28.9,28.9l0,0H832.6c-16,0-28.9-12.9-28.9-28.9l0,0
			C803.7,1304.7,803.7,304.2,803.7,304.2z"/>
		<path class="st16" d="M1168.3,396.6h184.2c4.6,0,8.4,3.7,8.4,8.4v184.2c0,4.6-3.7,8.4-8.4,8.4h-184.2c-4.6,0-8.4-3.7-8.4-8.4
			V404.9C1160,400.3,1163.7,396.6,1168.3,396.6z"/>
		<path class="st16" d="M1535.4,560.7h665.5c10.2,0,18.4,8.2,18.4,18.4v0.1c0,10.2-8.2,18.4-18.4,18.4h-665.5
			c-10.2,0-18.4-8.2-18.4-18.4v-0.1C1517,568.9,1525.2,560.7,1535.4,560.7z"/>
		<path class="st16" d="M1535.4,478.6h478.7c10.2,0,18.4,8.2,18.4,18.4v0.1c0,10.2-8.2,18.4-18.4,18.4h-478.7
			c-10.2,0-18.4-8.2-18.4-18.4V497C1517,486.9,1525.2,478.6,1535.4,478.6z"/>
		<path class="st16" d="M1535.4,396.6h572.1c10.2,0,18.4,8.2,18.4,18.4v0.1c0,10.2-8.2,18.4-18.4,18.4h-572.1
			c-10.2,0-18.4-8.2-18.4-18.4V415C1517,404.8,1525.2,396.6,1535.4,396.6z"/>
		<path class="st16" d="M1168.3,723.4h184.2c4.6,0,8.4,3.7,8.4,8.4V916c0,4.6-3.7,8.4-8.4,8.4h-184.2c-4.6,0-8.4-3.7-8.4-8.4V731.8
			C1160,727.2,1163.7,723.4,1168.3,723.4z"/>
		<path class="st16" d="M1535.4,887.5h665.5c10.2,0,18.4,8.2,18.4,18.4v0.1c0,10.2-8.2,18.4-18.4,18.4h-665.5
			c-10.2,0-18.4-8.2-18.4-18.4v-0.1C1517,895.7,1525.2,887.5,1535.4,887.5z"/>
		<path class="st16" d="M1535.4,805.5h478.7c10.2,0,18.4,8.2,18.4,18.4v0.1c0,10.2-8.2,18.4-18.4,18.4h-478.7
			c-10.2,0-18.4-8.2-18.4-18.4v-0.1C1517,813.7,1525.2,805.5,1535.4,805.5z"/>
		<path class="st16" d="M1535.4,723.4h572.1c10.2,0,18.4,8.2,18.4,18.4v0.1c0,10.2-8.2,18.4-18.4,18.4h-572.1
			c-10.2,0-18.4-8.2-18.4-18.4v-0.1C1517,731.7,1525.2,723.4,1535.4,723.4z"/>
		<path class="st16" d="M1168.3,1050.3h184.2c4.6,0,8.4,3.7,8.4,8.4v184.2c0,4.6-3.7,8.4-8.4,8.4h-184.2c-4.6,0-8.4-3.7-8.4-8.4
			v-184.2C1160,1054,1163.7,1050.3,1168.3,1050.3z"/>
		<path class="st16" d="M1535.4,1214.3h665.5c10.2,0,18.4,8.2,18.4,18.4v0.1c0,10.2-8.2,18.4-18.4,18.4h-665.5
			c-10.2,0-18.4-8.2-18.4-18.4v-0.1C1517,1222.6,1525.2,1214.3,1535.4,1214.3z"/>
		<path class="st16" d="M1535.4,1132.3h478.7c10.2,0,18.4,8.2,18.4,18.4v0.1c0,10.2-8.2,18.4-18.4,18.4h-478.7
			c-10.2,0-18.4-8.2-18.4-18.4v-0.1C1517,1140.5,1525.2,1132.3,1535.4,1132.3z"/>
		<path class="st16" d="M1535.4,1050.3h572.1c10.2,0,18.4,8.2,18.4,18.4v0.1c0,10.2-8.2,18.4-18.4,18.4h-572.1
			c-10.2,0-18.4-8.2-18.4-18.4v-0.1C1517,1058.5,1525.2,1050.3,1535.4,1050.3z"/>
		<circle class="st8" cx="868.8" cy="253.8" r="18.8"/>
		<circle class="st17" cx="938.5" cy="253.8" r="18.8"/>
		<circle class="st18" cx="1008.2" cy="253.8" r="18.8"/>
		<path class="st0" d="M3361.5,401.1c0.8-0.2,1.7-0.2,2.6,0c3.3,0.9,5.3,4.4,4.4,7.7c0,0.1-0.1,0.2-0.1,0.3
			c-3.7,12.3-8.7,24.1-14.9,35.3c-1.7,3-5.5,4.1-8.6,2.4c-3-1.7-4.1-5.5-2.4-8.6l0,0c5.8-10.4,10.4-21.4,13.8-32.8
			C3357,403.1,3359,401.4,3361.5,401.1z"/>
		<path class="st0" d="M2323.7,141.1c0.7-0.1,1.5-0.1,2.2,0l9,2.2c21,5.1,42.6,10.5,65.4,16.8c3.4,0.9,5.3,4.4,4.4,7.8
			c0,0.1,0,0.1-0.1,0.2c-0.8,3.3-4.2,5.3-7.5,4.5c-0.2,0-0.4-0.1-0.5-0.2c-22.6-6.3-44.2-11.6-65-16.7l-9.1-2.2
			c-3.3-0.8-5.4-4.2-4.6-7.5C2318.7,143.3,2321,141.3,2323.7,141.1z M2470.8,183.5c0.9-0.2,1.9-0.2,2.9,0
			c24.2,8.9,47.8,19.5,70.6,31.6c3.1,1.6,4.2,5.4,2.6,8.5c-1.6,3.1-5.4,4.2-8.5,2.6l0,0c-22.3-11.8-45.4-22.1-69.1-30.8
			c-3.3-1.2-5-4.7-3.8-8c0.8-2.3,2.8-3.9,5.2-4.1L2470.8,183.5z M2604.6,256.2c1.7-0.2,3.4,0.3,4.7,1.4c20.4,16,39,34.2,55.6,54.2
			c2.2,2.7,1.9,6.6-0.8,8.8c0,0,0,0,0,0c-2.7,2.2-6.7,1.8-8.9-0.9c-16-19.3-34-36.8-53.6-52.3c-2.7-2.1-3.2-6.1-1.1-8.8c0,0,0,0,0,0
			C2601.5,257.3,2603,256.4,2604.6,256.2z M2701,373.2c2.6-0.3,5.2,1,6.3,3.4c11.9,23,21.3,47.2,28,72.3c1.2,3.3-0.4,6.9-3.7,8.2
			c-3.3,1.2-6.9-0.4-8.2-3.7c-0.2-0.4-0.3-0.8-0.3-1.3c-6.4-24.3-15.4-47.7-27-70c-1.6-3-0.4-6.8,2.6-8.4c0,0,0.1-0.1,0.1-0.1
			c0.7-0.3,1.5-0.4,2.3-0.4H2701z M2669.4,458.5c14.1-1.7,28.3-2.4,42.5-2c3.5,0.1,6.2,3,6.2,6.4c-0.1,3.5-3,6.2-6.4,6.1
			c0,0,0,0,0,0c-13.6-0.3-27.3,0.4-40.8,2l0,0c-11.2,1.3-22.4,3.4-33.3,6.2c-3.4,0.8-6.8-1.2-7.6-4.6c-1.1-3.3,0.7-6.8,4-7.9
			c0.2-0.1,0.4-0.1,0.5-0.1c11.5-2.9,23.2-5.1,34.9-6.5L2669.4,458.5z M2786.7,466.5c0.7-0.1,1.4-0.1,2.1,0
			c25.1,5.8,49.8,12.8,74.2,21.1c3.2,1.4,4.6,5.2,3.2,8.4c-1.2,2.7-4.2,4.2-7.2,3.6c-23.9-8.1-48.2-15-72.8-20.7
			c-3.4-0.8-5.5-4.3-4.7-7.7C2782.1,468.7,2784.2,466.8,2786.7,466.5L2786.7,466.5z M2565.9,496.3c2.3-0.3,4.5,0.7,5.9,2.6
			c2,2.8,1.4,6.7-1.4,8.7c0,0,0,0,0,0c-10.6,7.6-20.3,16.4-28.8,26.3c-7.4,8.7-13.5,18.4-18.1,28.7c-1.8,3-5.7,4-8.7,2.2
			c-2.6-1.5-3.7-4.6-2.8-7.4c5.2-11.6,11.9-22.4,20.1-32.1c9.2-10.7,19.6-20.2,31.1-28.3c0.9-0.6,2-0.8,3.1-0.8L2565.9,496.3z
			 M2738.6,520.4h0.8c3.5,0,6.3,2.8,6.3,6.3c0.2,26.3-4.1,52.4-12.7,77.2c-1.2,3.2-4.8,4.9-8,3.9c-3.2-1.2-4.9-4.8-3.8-8
			c8.1-23.5,12.2-48.2,12-73.1c-0.2-3.4,2.3-6.3,5.7-6.6L2738.6,520.4z M2932.6,512.3c0.9-0.2,1.8-0.2,2.7,0c8.5,2.9,17,5.7,25.5,8
			c16.6,5.3,32.1,9.7,47.3,13.5c3.4,0.8,5.5,4.2,4.7,7.5c-0.8,3.4-4.2,5.5-7.5,4.7c-15.4-3.9-31.2-8-48.2-13.6
			c-8.6-2.7-17.2-5.4-25.8-8c-3.3-1-5.1-4.6-4.1-7.9C2928.1,514.2,2930.2,512.5,2932.6,512.3L2932.6,512.3z M3297.7,493.2
			c2.1-0.2,4.3,0.6,5.6,2.3c2.2,2.7,1.8,6.6-0.9,8.8c0,0,0,0,0,0c-20.4,16.5-43.2,29.7-67.6,39.1c-3.2,1.2-6.7-0.4-8-3.5
			c-1.1-3.2,0.5-6.7,3.6-8c23.2-9,44.9-21.5,64.2-37.2c1-0.9,2.1-1.4,3.4-1.7L3297.7,493.2z M3080.9,547.9h1.4
			c24.9,2.8,50.1,3,75.1,0.7c3.5-0.4,6.6,2.1,6.9,5.6c0.4,3.5-2.1,6.6-5.6,6.9l0,0c-25.8,2.4-51.9,2.2-77.6-0.7
			c-3.4-0.4-5.9-3.5-5.5-6.9c0.3-3,2.7-5.5,5.7-5.8L3080.9,547.9z M2505.8,628.2c3.3-0.4,6.4,1.9,6.9,5.2
			c2.8,19.7,12.8,37.6,28,50.4c3.1,2.5,6.4,4.8,9.8,6.8c3,1.7,4,5.6,2.3,8.6c-1.8,3-5.6,4-8.7,2.3c-4-2.4-7.8-5.1-11.4-8
			c-17.5-14.7-28.9-35.4-32.1-58.1C2500.2,632.1,2502.4,628.9,2505.8,628.2z M2686.3,659.6c1.9-0.3,3.9,0.4,5.2,1.8
			c2.5,2.4,2.5,6.4,0.1,8.9c0,0,0,0-0.1,0.1c-19,18.8-42.6,32.3-68.3,39.4c-3.3,0.9-6.8-1.1-7.7-4.5c-0.9-3.3,1.1-6.8,4.5-7.7
			c23.7-6.6,45.3-19.1,62.8-36.3c1.1-1,2.5-1.5,3.9-1.5L2686.3,659.6z"/>
		<path class="st0" d="M2216.1,103.9c1.6-0.2,3.1,0.2,4.4,1.1c9.9,6.6,20.7,11.8,32,15.6c3.3,1.2,4.9,4.8,3.7,8.1s-4.8,4.9-8.1,3.7
			l0,0c-12.2-4.1-23.9-9.8-34.6-17c-2.8-2.1-3.4-6-1.4-8.9c1-1.4,2.6-2.3,4.3-2.5L2216.1,103.9z"/>
		<circle class="st19" cx="2202.4" cy="927.6" r="252.9"/>
		<path class="st3" d="M2418.4,1059.6L2418.4,1059.6c18.2-29.8,57.1-39.3,87-21.1l386.9,236.1c29.8,18.2,39.3,57.1,21.1,87l0,0
			c-18.2,29.8-57.1,39.3-87,21.1l-386.9-236.1C2409.7,1128.4,2400.2,1089.5,2418.4,1059.6z"/>
		<path class="st20" d="M2211.3,880.7h-257.4l-1,6.1c-2.1,12.7-3.2,25.5-3.3,38.4v7.4h261.8c14.3,0,25.9-11.6,25.9-25.9
			c0-14.3-11.6-25.9-25.9-25.9C2211.4,880.7,2211.3,880.7,2211.3,880.7L2211.3,880.7z"/>
		<path class="st20" d="M2048,823.6c0-14.3-11.6-25.9-25.9-25.9h-37.7l-2.1,3.8c-6.8,12.3-12.6,25.1-17.4,38.4l-3.5,9.8h60.7
			C2036.4,849.5,2048,837.9,2048,823.6z"/>
		<path class="st20" d="M2142.6,740.5c-0.1-14.3-11.7-25.8-25.9-25.8h-57.2l-1.9,1.4c-15.4,11.1-29.5,23.9-42.2,38.1l-10.7,12.1
			h111.8c14.3,0.1,26-11.5,26.1-25.8C2142.6,740.6,2142.6,740.6,2142.6,740.5z"/>
		<path class="st20" d="M2116.7,1045.5h-140.1l6,10.8c7.5,13.5,16.1,26.4,25.9,38.4l2.2,2.6h106.1c14.3,0,25.9-11.6,25.9-25.9
			C2142.6,1057.1,2131,1045.5,2116.7,1045.5z"/>
		<path class="st3" d="M1936.1,765.2c-89.7,147.1-43.2,339,103.8,428.8c147.1,89.7,339,43.2,428.8-103.8
			c89.7-147.1,43.2-339-103.8-428.7c-147-89.7-338.9-43.3-428.7,103.7C1936.2,765.1,1936.1,765.1,1936.1,765.2z M2418.3,1059.4
			c-72.7,119.3-228.4,157-347.6,84.3c-119.3-72.7-157-228.4-84.3-347.6s228.4-157,347.6-84.3c0,0,0,0,0,0
			C2453.3,784.5,2491,940.1,2418.3,1059.4z"/>
		<path class="st15" d="M2305,779c25.9,23.2,33.6,53.3,27.9,75.4c-6.3,24.1,32.1,18.5,38.3-3.4c11.1-36.8-2.9-76.6-34.7-98.4
			c-36.2-24.1-81.3-30.8-123-18.5c-7.4,1.4-12.2,8.6-10.8,16c0.2,1.2,0.7,2.5,1.2,3.6c9.3,10.8,21,7.5,49.6,7.5
			C2272.2,761.1,2290.4,767.3,2305,779z"/>
	</g>
</g>
</svg>
