<?xml version="1.0" encoding="utf-8"?>
<!-- Generator: Adobe Illustrator 24.1.0, SVG Export Plug-In . SVG Version: 6.00 Build 0)  -->
<svg version="1.1" id="Layer_1" xmlns="http://www.w3.org/2000/svg" xmlns:xlink="http://www.w3.org/1999/xlink" x="0px" y="0px"
	 viewBox="0 0 2238.6 2000" style="enable-background:new 0 0 2238.6 2000;" xml:space="preserve">
<style type="text/css">
	.st0{fill:#110580;}
	.st1{fill:#CDDEFA;}
	.st2{fill:#66A896;}
	.st3{fill:#868AE0;}
	.st4{fill:#FFFFFF;}
</style>
<g id="Layer_2_1_">
	<g id="illustrations">
		<path class="st0" d="M1705.1,1925.9l-210.7-59.3c-1.6,0-3.3,0-4.9,0h-115.2v-57.6h-118.5v57.6h-115.2c-1.6,0-3.3,0-4.9,0
			l-207.4,59.3c-14.8,3.3-24.7,14.8-24.7,29.6v13.2c0,16.5,13.2,31.3,31.3,31.3h767c16.5,0,31.3-14.8,31.3-31.3v-13.2
			C1731.4,1942.4,1719.9,1929.2,1705.1,1925.9z"/>
		<path class="st0" d="M1738,3.6L1738,3.6c14.8,6.6,19.8,24.7,13.2,37.9L951.3,1669.2c-6.6,14.8-24.7,19.8-37.9,13.2l0,0
			c-14.8-6.6-19.8-24.7-13.2-37.9L1698.5,16.8C1706.7,1.9,1723.2-4.6,1738,3.6z"/>
		<path class="st1" d="M1356.2,1647.8c-423,28-788.4-291.3-816.3-714.3c-28-421.3,291.3-786.7,714.3-816.3
			c423-28,788.4,291.3,816.3,714.3C2098.5,1254.4,1779.2,1619.8,1356.2,1647.8L1356.2,1647.8z"/>
		<path class="st2" d="M1454.9,701.4L1454.9,701.4c-6.6-1.6-14.8-3.3-21.4-1.6s-1.6,11.5-6.6,11.5c-6.6,1.6-14.8,6.6-24.7,1.6
			c-21.4-13.2-42.8-59.3-57.6-80.6l0,0c49.4-18.1,0-49.4-21.4-57.6c-28-11.5-72.4-36.2-103.7-34.6c-21.4,1.6-64.2,29.6-85.6,37.9
			c-29.6,9.9-57.6,24.7-82.3,41.1c-92.2,74.1-77.4,217.3,39.5,258.4c31.3,11.5,72.4,8.2,87.2,46.1c11.5,28-8.2,41.1-13.2,64.2
			c-4.9,21.4,9.9,42.8,9.9,62.5c-3.3,39.5-21.4,56-46.1,80.6c-32.9,32.9-23,97.1-28,141.5c-3.3,23-11.5,85.6,3.3,103.7
			c23,28,88.9,9.9,116.9-3.3c21.4-9.9,26.3-29.6,42.8-41.1s32.9-11.5,51-29.6c14.8-14.8,32.9-26.3,54.3-31.3
			c39.5-14.8,42.8-32.9,49.4-70.8c13.2-79,105.3-72.4,164.6-107c62.5-34.6-16.5-51-36.2-82.3c-19.8-31.3-14.8-74.1-13.2-110.3
			c1.6-36.2,11.5-85.6,0-120.1C1524.1,757.4,1474.7,722.8,1454.9,701.4z"/>
		<path class="st2" d="M1576.7,1330.1c3.3,4.9,1.6,9.9-1.6,14.8l-79,85.6c-19.8,21.4-88.9,93.8-100.4,19.8
			c-4.9-28,21.4-49.4,37.9-64.2c21.4-19.8,14.8-37.9,32.9-56c21.4-21.4,54.3-6.6,79-16.5c3.3-1.6,8.2-6.6,11.5-6.6
			C1571.8,1305.5,1568.5,1315.3,1576.7,1330.1z"/>
		<path class="st2" d="M2070.5,831.4c-16.5-253.5-158-482.2-378.5-610.6l0,0l-128.4,60.9c-11.5,4.9-23,6.6-34.6,4.9l-172.8-21.4
			c-23-3.3-44.4,4.9-62.5,19.8l-74.1,64.2c-8.2,6.6-11.5,18.1-9.9,28l18.1,113.6c1.6,6.6,6.6,9.9,11.5,9.9c1.6,0,4.9-1.6,6.6-3.3
			l4.9-4.9c32.9-32.9,83.9-41.1,126.7-19.8l123.4,60.9c4.9,1.6,9.9,6.6,13.2,9.9l113.6,115.2c3.3,4.9,6.6,9.9,9.9,14.8l16.5,42.8
			c4.9,14.8,4.9,32.9-3.3,47.7l0,0c-3.3,4.9-3.3,11.5-3.3,16.5l3.3,139.9c0,14.8,11.5,26.3,26.3,28l0,0
			c46.1,4.9,93.8,1.6,138.3-11.5c11.5-3.3,19.8-14.8,18.1-28l-1.6-13.2c-1.6-8.2,4.9-14.8,11.5-16.5c3.3,0,6.6,0,8.2,1.6l41.1,21.4
			c13.2,6.6,21.4,18.1,24.7,31.3l14.8,57.6c1.6,4.9,1.6,11.5,1.6,16.5l-11.5,98.8c0,9.9,6.6,16.5,16.5,16.5c1.6,0,3.3,0,4.9,0
			l3.3-1.6c16.5-6.6,31.3-18.1,39.5-34.6c6.6-13.2,18.1-21.4,31.3-26.3l19.8-4.9c4.9-1.6,9.9-1.6,14.8-1.6l0,0
			C2068.8,981.2,2075.4,905.5,2070.5,831.4z"/>
		<path class="st2" d="M1023.7,355.8c3.3-1.6,4.9-3.3,8.2-4.9l46.1-18.1c36.2-13.2,60.9-47.7,64.2-85.6l0,0
			c3.3-39.5-16.5-77.4-49.4-100.4l0,0c-172.8,49.4-322.6,159.6-423,307.8l0,0c8.2,24.7,18.1,49.4,28,74.1
			c11.5,13.2,52.7,19.8,82.3,29.6c6.6,1.6,14.8-3.3,16.5-9.9c0-1.6,0-3.3,0-4.9l-6.6-52.7c-1.6-13.2,8.2-26.3,21.4-29.6l60.9-9.9
			c8.2-1.6,14.8-4.9,21.4-8.2L1023.7,355.8z"/>
		<path class="st2" d="M757.1,1071.7c36.2,4.9,69.1-19.8,74.1-56l0,0l4.9-31.3c1.6-13.2,8.2-26.3,18.1-36.2l0,0
			c26.3-26.3,24.7-67.5,0-93.8c-1.6-1.6-4.9-3.3-6.6-4.9l-49.4-37.9c-8.2-6.6-16.5-14.8-21.4-24.7l-57.6-115.2
			c-8.2-18.1-26.3-29.6-46.1-32.9l-90.5-13.2l0,0c-69.1,192.6-57.6,404.9,29.6,589.2l0,0l111.9-148.1l0,0L757.1,1071.7z"/>
		<path class="st3" d="M1303.5,1815.7c-141.5,0-283.1-32.9-409.8-95.5c-21.4-9.9-29.6-36.2-19.8-57.6s36.2-29.6,57.6-19.8
			c416.4,214,928.3,49.4,1140.6-367c212.3-416.4,49.4-928.3-367-1140.6c-8.2-4.9-18.1-8.2-26.3-13.2c-23-11.5-47.7-21.4-70.8-31.3
			c-21.4-8.2-32.9-32.9-24.7-56c8.2-21.4,32.9-32.9,56-24.7l0,0c26.3,9.9,52.7,21.4,77.4,34.6c462.5,227.1,653.4,786.7,426.3,1249.2
			C1984.9,1614.9,1660.7,1817.3,1303.5,1815.7z"/>
		<path class="st4" d="M1846.6,1254.4c57.6-8.2,116.9-11.5,172.8-29.6c28-9.9,19.8-79-13.2-69.1c-52.7,16.5-107,19.8-159.6,28
			C1813.7,1187,1817,1257.7,1846.6,1254.4z"/>
		<path class="st4" d="M1849.9,943.4c87.2-13.2,184.3-44.4,235.4-120.1c16.5-24.7-9.9-85.6-34.6-49.4
			c-42.8,62.5-133.3,87.2-202.4,98.8C1817,877.5,1820.3,948.3,1849.9,943.4L1849.9,943.4z"/>
		<path class="st4" d="M773.5,1254.4c-57.6-8.2-116.9-11.5-172.8-29.6c-28-9.9-19.8-79,13.2-69.1c52.7,16.5,107,19.8,159.6,28
			C806.5,1187,804.8,1257.7,773.5,1254.4z"/>
		<path class="st4" d="M770.3,943.4c-85.6-13.2-184.3-44.4-235.4-120.1c-16.5-24.7,9.9-85.6,34.6-49.4
			c41.1,62.5,133.3,87.2,202.4,98.8C804.8,877.5,801.5,948.3,770.3,943.4L770.3,943.4z"/>
		<path class="st4" d="M1275.5,791.9l-488.8,67.5c-24.7,3.3-42.8,24.7-44.4,49.4v306.1c0,21.4,13.2,39.5,32.9,47.7l386.8,146.5
			c105.3,39.5,220.5,39.5,325.9,0l388.4-146.5c19.8-8.2,32.9-26.3,32.9-47.7V908.8c0-24.7-19.8-46.1-44.4-49.4l-488.8-67.5
			C1341.4,787,1308.5,787,1275.5,791.9z"/>
		<path class="st0" d="M32.9,1126.1l-1.6,1.6c-3.3,1.6-6.6,0-8.2-1.6c-6.6-9.9-9.9-19.8-14.8-31.3c-1.6-3.3,0-6.6,3.3-6.6l0,0
			c3.3-1.6,6.6,0,6.6,3.3c3.3,9.9,8.2,19.8,13.2,29.6C34.6,1122.8,34.6,1124.4,32.9,1126.1z"/>
		<path class="st0" d="M826.2,602.7L826.2,602.7l-9.9,6.6c-16.5,9.9-32.9,21.4-49.4,32.9c-3.3,1.6-6.6,0-8.2-1.6
			c-1.6-3.3-1.6-6.6,1.6-8.2l0,0c18.1-11.5,34.6-21.4,49.4-32.9l6.6-4.9c1.6-1.6,6.6-1.6,8.2,1.6l0,0
			C826.2,597.7,826.2,601,826.2,602.7z M711,673.4c0,0-1.6,1.6-3.3,1.6c-19.8,9.9-41.1,19.8-62.5,28c-3.3,0-6.6-1.6-6.6-4.9
			c0-3.3,0-4.9,3.3-6.6c21.4-8.2,41.1-16.5,60.9-26.3c3.3-1.6,6.6,0,8.2,3.3C711,670.2,711,671.8,711,673.4L711,673.4z M582.6,717.9
			c-1.6,1.6-1.6,1.6-3.3,1.6c-23,3.3-46.1,4.9-69.1,4.9c-3.3,0-4.9-3.3-4.9-6.6c0-3.3,3.3-4.9,6.6-4.9l0,0c21.4,1.6,44.4,0,65.8-3.3
			c3.3,0,6.6,1.6,6.6,4.9C582.6,714.6,582.6,716.2,582.6,717.9L582.6,717.9z M447.7,711.3c-1.6,1.6-3.3,3.3-6.6,1.6
			c-23-6.6-44.4-14.8-64.2-24.7c-3.3-1.6-3.3-4.9-1.6-8.2c1.6-3.3,4.9-3.3,6.6-1.6l0,0c19.8,9.9,41.1,18.1,62.5,24.7
			c3.3,0,4.9,3.3,3.3,6.6l0,0C447.7,709.7,447.7,709.7,447.7,711.3L447.7,711.3z M409.8,638.9c-6.6,9.9-14.8,19.8-24.7,29.6
			c-1.6,1.6-4.9,3.3-8.2,0c-3.3-3.3-3.3-4.9,0-8.2l0,0c8.2-8.2,16.5-18.1,23-28l0,0c6.6-8.2,11.5-16.5,16.5-24.7
			c1.6-3.3,4.9-3.3,8.2-1.6c3.3,0,3.3,3.3,3.3,6.6l0,0C423,620.8,416.4,630.7,409.8,638.9L409.8,638.9z M334.1,711.3L334.1,711.3
			c-18.1,13.2-36.2,23-59.3,37.9c-3.3,1.6-6.6,1.6-8.2-1.6s-1.6-6.6,1.6-8.2c0,0,0,0,1.6,0c23-13.2,41.1-24.7,57.6-36.2
			c1.6-1.6,6.6-1.6,8.2,1.6l0,0C335.8,706.4,335.8,709.7,334.1,711.3z M447.7,548.4c-1.6,1.6-3.3,1.6-4.9,1.6
			c-3.3,0-4.9-3.3-4.9-6.6c1.6-11.5,1.6-23,0-34.6c-1.6-9.9-3.3-19.8-8.2-29.6c-1.6-3.3,0-6.6,3.3-6.6c3.3-1.6,6.6,0,6.6,3.3l0,0
			c4.9,9.9,6.6,21.4,8.2,32.9c1.6,13.2,1.6,24.7,0,37.9C447.7,546.7,447.7,548.4,447.7,548.4z M327.5,647.1L327.5,647.1
			c-1.6,1.6-4.9,1.6-8.2,0c-18.1-14.8-32.9-34.6-42.8-54.3c-1.6-3.3,0-6.6,1.6-8.2c3.3-1.6,6.6,0,8.2,1.6
			c9.9,19.8,24.7,36.2,41.1,51C329.2,640.5,330.8,643.8,327.5,647.1L327.5,647.1z M217.3,778.8l-1.6,1.6l-21.4,11.5
			c-13.2,8.2-26.3,14.8-37.9,23c-3.3,0-6.6-1.6-6.6-3.3s0-3.3,0-4.9c11.5-8.2,24.7-14.8,37.9-23l21.4-11.5c3.3-1.6,6.6,0,8.2,1.6
			C217.3,775.5,217.3,777.1,217.3,778.8L217.3,778.8z M9.9,1028.9c-1.6,1.6-3.3,3.3-4.9,3.3c-3.3,0-4.9-3.3-4.9-6.6l0,0
			c1.6-23,6.6-46.1,14.8-67.5c1.6-3.3,3.3-4.9,6.6-3.3s4.9,3.3,4.9,6.6v1.6c-8.2,21.4-13.2,42.8-14.8,64.2
			C11.5,1027.3,11.5,1028.9,9.9,1028.9z M103.7,854.5L103.7,854.5c-16.5,16.5-31.3,32.9-46.1,51c-1.6,3.3-4.9,3.3-8.2,1.6
			c0,0-1.6,0-1.6-1.6c-1.6-1.6-1.6-4.9,0-8.2l0,0c13.2-18.1,29.6-34.6,47.7-51c1.6-1.6,4.9-1.6,8.2,0
			C105.3,849.6,105.3,852.8,103.7,854.5z M396.6,429.9c-1.6,1.6-4.9,3.3-8.2,1.6c-18.1-11.5-39.5-16.5-59.3-9.9
			c-3.3,1.6-6.6,0-8.2-1.6c-1.6-1.6,0-6.6,1.6-8.2h1.6c3.3-1.6,8.2-1.6,11.5-3.3c19.8-3.3,41.1,1.6,57.6,13.2
			C398.3,423.3,398.3,426.6,396.6,429.9L396.6,429.9z M268.3,528.6c-1.6,1.6-3.3,1.6-4.9,1.6c-3.3,0-4.9-1.6-6.6-4.9
			c-1.6-23,4.9-47.7,14.8-69.1c1.6-3.3,4.9-3.3,8.2-1.6c1.6,1.6,3.3,4.9,1.6,6.6c-9.9,19.8-14.8,41.1-14.8,62.5
			C268.3,527,268.3,528.6,268.3,528.6L268.3,528.6z"/>
		<path class="st0" d="M913.4,554.9c0,1.6-1.6,1.6-3.3,1.6c-9.9,1.6-19.8,6.6-29.6,11.5c-3.3,1.6-6.6,0-8.2-1.6
			c-1.6-3.3,0-6.6,1.6-8.2c9.9-4.9,21.4-9.9,31.3-13.2c3.3,0,6.6,1.6,6.6,4.9C915.1,551.7,915.1,553.3,913.4,554.9z"/>
	</g>
</g>
</svg>
