<?xml version="1.0" encoding="UTF-8" standalone="no"?>
<!DOCTYPE svg PUBLIC "-//W3C//DTD SVG 1.1//EN" "http://www.w3.org/Graphics/SVG/1.1/DTD/svg11.dtd">
<svg xmlns="http://www.w3.org/2000/svg" xml:space="preserve" width="700px" height="700px" version="1.1" style="shape-rendering:geometricPrecision; text-rendering:geometricPrecision; image-rendering:optimizeQuality; fill-rule:evenodd; clip-rule:evenodd"
viewBox="0 0 185.20833 185.20834"
 xmlns:xlink="http://www.w3.org/1999/xlink">
 
  <g>
    <g
       transform="matrix(0.07697973,0,0,0.08132917,9.349103,9.9199552)">
		<path
      class="st0"
      d="m 784.6,1719.9 c -1,-0.2 -1.9,-0.6 -2.8,-1.2 -3.3,-2.3 -4.1,-6.9 -1.7,-10.2 0,0 0,0 0,-0.1 8.7,-12.2 18.7,-23.4 29.9,-33.4 2.8,-2.9 7.5,-3.1 10.4,-0.2 2.9,2.8 3.1,7.5 0.2,10.4 -0.2,0.3 -0.5,0.5 -0.8,0.7 -10.4,9.3 -19.7,19.8 -27.8,31.1 -1.6,2.4 -4.5,3.5 -7.4,2.9 z"
      />

	

		<path
   class="st1"
   d="m 1854.9,269.2 c -9.4,-3.2 -19.8,1.2 -24.1,10.1 l -168.4,325.8 c 6.8,3.5 14.9,3.9 22,1 l 506.4,-212.9 c 7.1,-3 12.5,-9.1 14.7,-16.5 z"
   />

		<path
   class="st2"
   d="m 2058,31.5 v 0 c -0.6,-0.3 -1.3,-0.5 -2,-0.7 v 0 c 0.7,0.2 1.3,0.4 2,0.7 z"
   />

		<path
   class="st2"
   d="m 1861.4,351.8 c 9.2,2 18.7,-1.9 23.8,-9.9 L 2057.6,31.5 c -0.6,0 -1.2,-0.6 -1.9,-0.7 v 0 h -0.4 -0.5 c -1.6,-0.4 -3.3,-0.7 -5,-0.8 l 2.3,0.3 c -4.6,-0.6 -9.2,0 -13.5,1.7 l -506.4,213 c -6.1,2.6 -11,7.4 -13.7,13.5 z"
   />

		<path
   class="st3"
   d="m 1803,335.8 -284.2,-77.7 c -0.4,0.9 -0.9,1.7 -1.2,2.7 v 0 c -2.1,6.4 -1.9,13.3 0.8,19.6 l 130.3,309.9 c 2.7,6.4 7.6,11.7 13.8,14.8 z"
   />

		<path
   class="st3"
   d="m 2203.5,381.3 -0.5,0.9 z"
   />

		<path
   class="st3"
   d="m 2203,382.2 c -0.8,1.5 -1.8,2.9 -2.9,4.2 1,-1.3 2,-2.7 2.9,-4.2 z"
   />

		<path
   class="st3"
   d="m 2057.6,31.5 -142.9,257.4 290.8,87.8 c -0.5,1.6 -1.2,3.2 -2,4.7 4,-7.7 4.4,-16.8 1,-24.9 L 2074.2,46.6 c -3.1,-7.2 -9.1,-12.7 -16.6,-15.1 z"
   />

		<path
   class="st3"
   d="m 2060.7,32.4 c -0.9,-0.4 -1.9,-0.6 -2.8,-1 v 0 c 1,0.7 1.9,0.7 2.8,1 z"
   />

		<path
   class="st1"
   d="m 462.4,1619.3 c -8.3,-10.4 -23,-13 -34.3,-6 l -422.8,243 c 5.1,8.9 13.9,15.1 24,16.9 L 749,1999.5 c 10.1,1.7 20.5,-1.2 28.3,-7.9 z"
   />

		<path
   class="st2"
   d="m 860.6,1499.4 v 0 c -0.6,-0.7 -1,-1.5 -1.7,-2.2 v 0 c 0.7,0.7 1.2,1.5 1.7,2.2 z"
   />

		<path
   class="st2"
   d="m 410.3,1716.3 c 8.9,8.9 22.4,11.3 33.8,6 l 416.7,-222.9 c -0.6,-0.7 -1,-1.5 -1.6,-2.2 v 0 l -0.4,-0.6 c -0.2,-0.1 -0.4,-0.3 -0.5,-0.4 -1.6,-1.6 -3.2,-3.1 -5.1,-4.4 0.8,0.6 1.5,1.3 2.3,2 -4.7,-4 -10.3,-6.7 -16.3,-7.8 L 119.4,1359.8 c -8.7,-1.5 -17.6,0.4 -24.9,5.2 z"
   />

		<path
   class="st3"
   d="m 356.4,1656.3 -262,-291.4 c -1.1,0.6 -2.2,1.4 -3.3,2.1 v 0 c -7,5.6 -11.7,13.5 -13.3,22.4 L 0.6,1829.8 c -1.6,9.1 0.1,18.5 4.7,26.5 z"
   />

		<path
   class="st3"
   d="m 771.6,1995.5 -1.2,0.6 z"
   />

		<path
   class="st3"
   d="m 770.4,1996.1 c -2.1,1 -4.2,1.9 -6.4,2.6 2.2,-0.7 4.4,-1.5 6.4,-2.6 z"
   />

		<path
   class="st3"
   d="m 860.6,1499.4 -345.4,184.7 262.1,307.7 c -1.8,1.4 -3.7,2.7 -5.6,3.8 10.2,-5.7 17.3,-15.6 19.2,-27.1 l 76.9,-440.4 c 1.8,-10.1 -0.8,-20.6 -7.2,-28.7 z"
   />

		<path
   class="st3"
   d="m 863,1502.5 c -0.7,-1.1 -1.5,-2.2 -2.4,-3.1 v 0 c 0.9,0.9 1.7,2 2.4,3.1 z"
   />

		<path
   class="st0"
   d="m 424.6,1331 c -0.6,0.8 -1.3,1.5 -2.1,2.1 -3.4,2.2 -8,1.3 -10.2,-2.1 -8.2,-12.5 -15.1,-25.9 -20.4,-39.9 -1.8,-3.7 -0.2,-8.1 3.4,-9.8 3.7,-1.8 8.1,-0.2 9.8,3.4 0.2,0.4 0.3,0.8 0.4,1.2 5.1,13 11.5,25.5 19.2,37.1 1.7,2.4 1.6,5.6 -0.1,8 z"
   />

   <g id="plane-line">
		<path
      class="st0 path-stroke" stroke="#000000"
      d="m 1439.7,597.1 c -0.5,0.8 -1.1,1.4 -1.8,1.9 l -8.8,6.4 c -20.4,14.9 -41.5,30.2 -64.1,45.8 -3.3,2.3 -7.8,1.5 -10.1,-1.8 0,0 -0.1,-0.1 -0.1,-0.2 -2.3,-3.4 -1.4,-7.9 1.9,-10.2 0,0 0,0 0,0 22.6,-15.4 43.7,-30.8 64.1,-45.6 l 8.8,-6.4 c 3.3,-2.4 7.9,-1.7 10.3,1.6 0,0 0,0 0,0 1.8,2.7 1.6,6 -0.2,8.5 z M 1291,696.9 c -0.6,1 -1.5,1.8 -2.6,2.4 -26.2,15 -53.4,28.2 -81.4,39.5 -3.7,1.7 -8.1,0.1 -9.8,-3.6 -1.7,-3.7 -0.1,-8.1 3.6,-9.8 0.2,-0.1 0.5,-0.2 0.7,-0.3 27.4,-11 54,-23.9 79.7,-38.5 3.5,-2 8,-0.8 10,2.8 0,0 0,0 0,0 1.3,2.4 1.3,5.3 -0.2,7.5 z M 1124.9,762 c -1.1,1.7 -2.8,2.8 -4.7,3.2 -29.8,6.1 -60.1,9.1 -90.4,9 -4,-0.1 -7.3,-3.4 -7.2,-7.4 0,-4 3.3,-7.3 7.3,-7.3 0,0 0,0 0.1,0 29.3,0.2 58.6,-2.7 87.4,-8.7 3.9,-0.9 7.8,1.6 8.7,5.6 0.3,1.9 -0.1,3.9 -1.2,5.6 z m -177.6,-1.6 c -1.7,2.6 -4.8,3.8 -7.8,3.1 -29.7,-6.7 -58.5,-16.6 -86,-29.6 -3.7,-1.8 -5.2,-6.2 -3.5,-9.9 1.8,-3.7 6.2,-5.2 9.9,-3.5 26.5,12.6 54.4,22.1 83,28.6 4,0.9 6.5,4.8 5.6,8.8 -0.3,1 -0.7,1.8 -1.2,2.5 z m -52.6,-92.6 c -9.1,13.9 -19.2,27.1 -30.2,39.6 -2.7,3.1 -7.4,3.4 -10.4,0.7 -3.1,-2.7 -3.4,-7.4 -0.7,-10.4 10.6,-11.9 20.2,-24.6 29,-37.9 v 0 c 7.3,-11.1 13.8,-22.6 19.6,-34.5 1.7,-3.7 6,-5.4 9.7,-3.7 3.7,1.7 5.4,6 3.7,9.7 -0.1,0.1 -0.1,0.3 -0.2,0.4 -6,12.4 -12.9,24.5 -20.5,36.1 z m -95.6,99.1 c -0.4,0.7 -1,1.3 -1.7,1.8 -24.1,18.1 -49,34.9 -74.8,50.5 -3.5,2.1 -8.1,1 -10.3,-2.5 -2.1,-3.5 -1,-8.1 2.5,-10.3 v 0 c 30.4,-18.7 53.1,-34 73.7,-49.6 3.1,-2.5 7.7,-2 10.3,1.1 2,2.5 2.2,6.1 0.3,8.8 z M 938.9,546.6 c -2.1,3.4 -6.7,4.5 -10.1,2.3 -2.4,-1.5 -3.7,-4.2 -3.4,-6.9 1.2,-15.2 0.6,-30.5 -1.9,-45.6 -2.2,-13.2 -6.3,-25.9 -12.1,-37.9 -1.8,-3.7 -0.2,-8.1 3.5,-9.9 3.7,-1.8 8.1,-0.2 9.9,3.5 6.3,13.3 10.8,27.4 13.3,41.9 2.6,16.2 3.3,32.8 2.1,49.2 -0.2,1.2 -0.6,2.4 -1.3,3.4 z M 787.4,683.4 c -0.2,0.2 -0.3,0.5 -0.5,0.7 -2.6,3.1 -7.3,3.5 -10.4,0.9 -23.7,-19.6 -43.9,-43.2 -59.6,-69.7 -2.1,-3.5 -0.8,-8.1 2.7,-10.1 3.5,-2.1 8.1,-0.8 10.1,2.7 v 0 c 14.9,25 34,47.2 56.4,65.8 2.9,2.4 3.4,6.6 1.3,9.7 z M 648.1,862.9 c -0.6,0.9 -1.4,1.7 -2.3,2.2 -8.9,5.5 -17.8,11 -26.7,16.5 -17.3,11 -32.9,21.5 -47.7,32.1 -3.2,2.5 -7.8,2 -10.4,-1.2 -2.5,-3.2 -2,-7.8 1.2,-10.4 0.1,-0.1 0.3,-0.2 0.5,-0.3 15.1,-10.9 30.9,-21.6 48.5,-32.8 8.9,-5.6 17.9,-11.2 26.9,-16.7 3.4,-2.2 7.9,-1.2 10.1,2.2 1.6,2.5 1.5,5.7 -0.2,8.1 z m -257.9,341.7 c -1.4,2.2 -3.8,3.4 -6.4,3.3 -4.1,-0.1 -7.3,-3.4 -7.2,-7.5 0,0 0,0 0,0 0.6,-30.7 6,-61 15.9,-90.1 1.3,-3.9 5.5,-5.9 9.4,-4.6 3.9,1.3 5.9,5.5 4.6,9.4 v 0 c -9.4,27.6 -14.5,56.4 -15.1,85.6 -0.1,1.4 -0.5,2.8 -1.2,3.9 z M 504.4,969.3 c -0.3,0.5 -0.6,0.9 -1,1.3 -21.3,20.3 -40.4,42.6 -57.2,66.7 -2.4,3.3 -7,4.1 -10.3,1.8 -3.2,-2.3 -4.1,-6.6 -2,-10 v 0 c 17.4,-24.9 37.2,-48 59.2,-69 2.9,-2.9 7.5,-2.9 10.4,0 0,0 0,0 0,0 2.4,2.5 2.8,6.3 0.9,9.2 z m 361,-575.9 c -2.2,3.3 -6.5,4.3 -9.9,2.3 -19.8,-12.3 -43.4,-16.9 -66.3,-12.8 -4.6,0.9 -9.1,2.1 -13.5,3.7 -3.8,1.4 -8.1,-0.6 -9.4,-4.5 -1.3,-3.9 0.6,-8.1 4.5,-9.4 5.1,-1.8 10.4,-3.2 15.8,-4.2 26.4,-4.7 53.7,0.6 76.5,14.7 3.5,2.1 4.7,6.6 2.6,10.1 z M 701.5,531.5 c -2.2,3.4 -6.8,4.4 -10.2,2.1 -1.9,-1.3 -3.1,-3.3 -3.3,-5.6 -2.4,-31.2 3.2,-62.5 16.2,-91 1.8,-3.7 6.1,-5.2 9.8,-3.5 3.7,1.7 5.3,6.1 3.5,9.8 -11.9,26.1 -17.1,54.7 -14.9,83.3 0.2,1.7 -0.2,3.4 -1.1,4.9 1553.9,529 c -1,1.5 -2.5,2.6 -4.3,3.1 -13.2,3.9 -25.9,9.5 -37.7,16.7 -3.5,2 -8,0.8 -10.1,-2.7 -2,-3.5 -0.8,-8 2.8,-10.1 12.9,-7.9 26.8,-14 41.3,-18.2 3.9,-1 7.9,1.4 9,5.3 0.5,2 0.2,4.2 -1,5.9 z"
      />
      <path stroke="#000000"
      class="st0 path-stroke"
      d="m 1301.3,1760.1 c -1.1,-0.2 -2.1,-0.7 -2.9,-1.3 -8.5,-6.4 -16.9,-12.8 -25.1,-19.2 -16.5,-12.1 -32,-22.9 -47.2,-32.9 -3.6,-1.9 -5,-6.4 -3,-10 1.9,-3.6 6.4,-5 10,-3 0.4,0.2 0.7,0.4 1.1,0.7 15.6,10.1 31.3,21 48,33.4 8.5,6.4 16.9,12.8 25.3,19.2 3.1,2.6 3.5,7.3 0.9,10.4 -1.8,2.1 -4.6,3.1 -7.3,2.4 z M 889.8,1642.4 c -4,-1 -6.5,-5 -5.5,-9 0.6,-2.4 2.3,-4.3 4.5,-5.2 28.8,-10.4 59.1,-16.4 89.7,-17.6 4.1,-0.2 7.5,3 7.7,7.1 0.2,4.1 -3,7.5 -7.1,7.7 -29.1,1.1 -57.9,6.7 -85.3,16.7 -1.2,0.4 -2.6,0.6 -3.8,0.3 z m 260.6,21.8 c -0.5,-0.1 -1,-0.3 -1.5,-0.6 -26.5,-12.4 -54.2,-22.1 -82.6,-29 -3.9,-0.9 -6.4,-4.8 -5.5,-8.8 0,0 0,-0.1 0,-0.1 0.9,-3.9 4.8,-6.4 8.7,-5.5 v 0 c 29.5,7.2 58.2,17.3 85.7,30.3 3.7,1.7 5.4,6 3.7,9.7 -1.4,3.2 -5,5 -8.4,4.2 z"
      />
   </g>

	<circle
      class="st4"
      cx="271.89999"
      cy="1366.3"
      r="71.300003"
      style="fill:#ff7a82;fill-opacity:1" />

		
	<circle
      transform="matrix(0.2298,-0.9732,0.9732,0.2298,1062.4561,1724.5071)"
      class="st4"
      cx="1620.7"
      cy="191"
      r="53.200001"
      style="fill:#ff7a82;fill-opacity:1" />

		<path
   class="st5"
   d="m 1386.5,1101.6 c -4.2,-33 -27.9,-60.3 -54.2,-80.8 -74.3,-57.7 -174.8,-76.9 -267.9,-61.9 -34.7,5.6 -69.4,15.9 -98.4,35.8 -59.6,41.1 -85.5,123.7 -62.2,192.3 3.5,7.5 8.6,14.3 14.8,19.8 -29,55 -46,95.7 -70.5,152.4 57.6,-43.7 119.5,-81.4 184.7,-112.5 l 8.1,4.3 c 77.8,47.4 180.7,24.4 259,-22.1 47,-27.7 93.5,-73.3 86.6,-127.3 z"
   />

		<ellipse
   class="st6"
   cx="1033.6"
   cy="1113.4"
   rx="28.4"
   ry="27.1"
   />

		<ellipse
   class="st6"
   cx="1132.6"
   cy="1113.4"
   rx="28.4"
   ry="27.1"
   />

		<ellipse
   class="st6"
   cx="1224.8"
   cy="1113.4"
   rx="28.4"
   ry="27.1"
   />

		<path
   class="st2"
   d="m 1240,1225.4 c 21.1,-63 86.9,-99.3 150.3,-119.2 146.8,-45.7 305.3,-36.7 446,25.3 65.1,28.9 128.2,72.5 156.7,137.8 24.7,56.9 19.2,124.6 -9,179.5 -28.3,54.9 -77.9,97.9 -134.2,123.8 19.6,50.2 49.4,111.7 69,161.9 L 1799.2,1664 c -20,-12.8 -41.4,-23.3 -63.8,-31.2 -31,-9.5 -64.1,-8.8 -96.2,-10.7 -90.6,-5.3 -181.1,-32.1 -255.1,-84.9 -74,-52.8 -130.3,-131.9 -147,-221.1 -5.6,-30.1 -6.7,-61.7 2.9,-90.7 z"
   />

		<path
      class="st6"
      d="m 1835.4,1258.3 h -429.3 c -9.8,0 -17.8,-8 -17.8,-17.8 v 0 c 0,-9.8 8,-17.8 17.8,-17.8 h 429.3 c 9.8,0 17.8,8 17.8,17.8 v 0 c 0,9.9 -8,17.8 -17.8,17.8 z"
      />

		<path
   class="st6"
   d="M 1694.8,1343.3 H 1406 c -9.8,0 -17.8,-8 -17.8,-17.8 v 0 c 0,-9.8 8,-17.8 17.8,-17.8 h 288.8 c 9.8,0 17.8,8 17.8,17.8 v 0 c 0.1,9.9 -7.9,17.8 -17.8,17.8 z"
   />

		<path
   class="st6"
   d="m 1594.7,1428.3 h -188.6 c -9.8,0 -17.8,-8 -17.8,-17.8 v 0 c 0,-9.8 8,-17.8 17.8,-17.8 h 188.6 c 9.8,0 17.8,8 17.8,17.8 v 0 c 0,9.9 -8,17.8 -17.8,17.8 z"
   />

		<path
   class="st6"
   d="m 1682,1392.7 h 118.4 c 9.8,0 17.8,8 17.8,17.8 v 0 c 0,9.8 -8,17.8 -17.8,17.8 H 1682 c -9.8,0 -17.8,-8 -17.8,-17.8 v 0 c 0,-9.8 8,-17.8 17.8,-17.8 z"
   />

   <g id="plane1">
         <path
      class="st7"
      d="m 973.6,318.7 c 0,0 12.2,-67 8.8,-68.1 L 523,102.2 Z"
      />
      	<polygon
      class="st7"
      points="644.1,106.3 996.6,155.4 1026.3,86.7 "
      />
      	<polygon
      class="st8"
      points="1026.3,86.7 969,0 523,102.2 1175.5,312.9 1079.2,166.9 644.1,106.3 "
      />
   </g>

   <g id="plane2">
		<polygon
      class="st7"
      points="1525.2,1914.5 1363.6,1817.9 1368.4,1771.3 "
      />
      	<path
      class="st8"
      d="m 1437.8,1725.5 c -2.2,-0.3 -69.4,45.8 -69.4,45.8 l 156.8,143.1 -189.2,-113.2 -72,76.9 370.2,109 z"
      />
   </g>

   <g id="arrow-up">
		<path
   class="st9"
   d="m 2112.1,929.5 c 0.3,-7.3 0.3,-40.2 -13.3,-38.5 -26.3,3.1 -53.8,16.5 -78.1,33.9 22.8,-108.7 22.1,-221 -2,-329.3 -3.7,-16.7 -16.5,-20.4 -26.5,-6.9 -11.9,15.9 -16.2,44.9 -12.5,64.1 18.6,89.4 16.3,181.9 -6.8,270.2 -22.3,-46.1 -57.7,-100.1 -80.3,-61 -8.3,15.9 -10.8,34.3 -7.1,51.9 2.1,9.4 6.4,18.6 14.9,15.8 12.8,3.8 26.3,36.2 32,46.7 10,19.1 18.2,39.1 24.6,59.7 0.6,1.9 1.4,3.7 2.3,5.4 3.5,12.3 11.4,24.6 24.2,12.5 16,-16 33.1,-30.7 51.3,-44 19.2,-13.3 40.6,-22.6 59.8,-35.4 13.2,-9 16.8,-30 17.5,-45.1 z"
   style="fill:#4daf7b;fill-opacity:1" />

   </g>

   <g id="arrow-down">
		<path
      class="st9"
      d="m 366.2,561.7 c -19.2,-40.4 -2.8,-66.3 9.6,-107.2 5.2,-17.4 6.9,-35.7 4.8,-53.7 1.1,-20.6 -2.4,-39.4 -16,-37.6 l -4.4,0.8 c -3.7,-0.7 -7.5,0.3 -10.4,2.7 -23.9,7.5 -47.8,23.8 -70.5,33.3 -31.7,13.3 -64.5,22.2 -96.9,33.8 -25.6,9.2 -26.9,112.9 0.4,109 22.7,-3.7 44.9,-9.5 66.5,-17.4 -74.5,122 -132.7,253.9 -153,396.7 -1.9,13.5 -5.4,48.1 10.3,55.9 15.7,7.8 23.2,-19.9 24.7,-30.2 21.8,-143 98.6,-267.3 173.9,-389 2.7,35.2 16.8,68.6 40.1,95.1 12.8,14.1 25,-22.8 26.2,-28.1 5.6,-21.4 3.7,-44 -5.3,-64.1 z"
      style="fill:#4daf7b;fill-opacity:1" />
   </g>

	</g>
  </g>
  <style
     type="text/css"
     id="style7608">
	.st0{fill:#110580;}
	.st1{fill:#D5D5ED;}
	.st2{fill:#FFFFFF;}
	.st3{fill:#E8E8F7;}
	.st4{fill:#FF5856;}
	.st5{fill:#FCFAF8;}
	.st6{fill:#D6D7F0;}
	.st7{fill:#4E53BA;}
	.st8{fill:#868AE0;}
	.st9{fill:#EBDBCD;}

   .path-stroke {
      stroke-dasharray: 20;
   }

</style>
</svg>
