<?xml version="1.0" encoding="UTF-8"?>
<!DOCTYPE svg PUBLIC "-//W3C//DTD SVG 1.1//EN" "http://www.w3.org/Graphics/SVG/1.1/DTD/svg11.dtd">
<svg xmlns="http://www.w3.org/2000/svg" xml:space="preserve" width="110" height="30" version="1.1" style="shape-rendering:geometricPrecision; text-rendering:geometricPrecision; image-rendering:optimizeQuality; fill-rule:evenodd; clip-rule:evenodd"
viewBox="0 0 110 30"
 xmlns:xlink="http://www.w3.org/1999/xlink"> 
  
  <defs>
  <style type="text/css">
  </style>
  </defs>
   <path d="m 16.102117,10.462531 c -0.617796,0 -1.118595,0.498753 -1.118595,1.113975 h -0.223723 v -0.891177 c 0,-0.615222 -0.500798,-1.1139744 -1.118595,-1.1139744 -0.617804,0 -1.118603,0.4987524 -1.118603,1.1139744 v 0.891177 H 12.298878 V 5.7838562 c 0,-0.7382849 -0.600965,-1.3367656 -1.342317,-1.3367656 -0.741352,0 -1.3423185,0.5984807 -1.3423185,1.3367656 V 11.576506 H 9.2346995 L 7.2844235,6.6318376 C 7.0133365,5.9446568 6.2342315,5.6064549 5.5442505,5.8764266 4.8542365,6.1463693 4.5146625,6.9222503 4.7857245,7.6094032 l 2.090805,5.3008908 -0.869433,0.69266 c -0.430129,0.342713 -0.545738,0.946266 -0.272409,1.422565 l 1.789762,3.119118 a 1.1185434,1.1139149 0 0 0 0.971198,0.56128 h 6.7115965 c 0.519086,0 0.969994,-0.355637 1.088873,-0.858818 l 0.894873,-3.787492 a 1.1177604,1.1131352 0 0 0 0.0297,-0.255161 v -2.22794 c 0,-0.615222 -0.50079,-1.113975 -1.118595,-1.113975 z"
      style="fill:#ff7a82" />
   <path
       d="m 23.750204,22.247807 q 0,0.362626 -0.01662,0.687081 -0.01662,0.34354 -0.116314,0.610738 -0.08308,0.267198 -0.265861,0.419883 -0.166163,0.17177 -0.481874,0.17177 -0.365558,0 -0.614803,-0.305369 -0.232629,-0.286284 -0.265861,-1.030622 -0.01662,-0.477139 -0.04985,-1.16422 -0.03324,-0.68708 -0.06646,-1.450503 -0.01662,-0.763423 -0.04985,-1.526846 -0.01662,-0.763423 -0.01662,-1.412333 0,-2.233013 0.265861,-3.683517 0.282477,-1.450504 0.830816,-2.309355 0.548338,-0.858851 1.345921,-1.202391 0.8142,-0.3435406 1.877644,-0.3435406 0.847432,0 1.595167,0.3053696 0.747734,0.286283 1.296073,0.916107 0.564955,0.610739 0.897281,1.603189 0.332326,0.973365 0.332326,2.347526 0,1.145135 -0.348943,2.023071 -0.332326,0.877937 -0.930514,1.488675 -0.598187,0.591653 -1.412387,0.916108 -0.797583,0.305369 -1.711481,0.305369 -0.780966,0 -1.412387,-0.362626 -0.614803,-0.381711 -0.880664,-0.82068 0.08308,1.068793 0.13293,1.9849 0.06646,0.916108 0.06646,1.832216 z m 2.293053,-10.630666 q -0.581571,0 -1.013596,0.229026 -0.415407,0.229027 -0.681269,0.629825 -0.265861,0.400796 -0.398791,0.954278 -0.116315,0.553482 -0.116315,1.202391 0,0.629825 0.0997,1.202392 0.116315,0.553482 0.365559,0.973364 0.249245,0.419883 0.664653,0.667995 0.415408,0.248113 1.013595,0.248113 0.465257,0 0.897281,-0.133598 0.432024,-0.152686 0.764351,-0.496226 0.348942,-0.34354 0.548339,-0.916107 0.216011,-0.572568 0.216011,-1.431419 0,-0.877937 -0.216011,-1.46959 -0.199397,-0.610738 -0.548339,-0.973364 -0.332327,-0.381711 -0.764351,-0.534396 -0.415407,-0.152684 -0.830815,-0.152684 z"
       style="font-size:17.8082px;line-height:1.25;font-family:Sniglet;-inkscape-font-specification:Sniglet;fill:#ff7a82;stroke-width:0.20869"
       />
   <path
       d="m 35.730521,9.8230959 q 0.947131,0 1.694865,0.3435401 0.747734,0.324455 1.26284,0.935193 0.531723,0.610739 0.8142,1.488676 0.282477,0.877936 0.282477,1.965815 0,1.20239 -0.332327,2.156669 -0.315709,0.954279 -0.89728,1.622274 -0.564955,0.667995 -1.362539,1.030622 -0.780966,0.362626 -1.711481,0.362626 -1.013595,0 -1.794561,-0.400797 -0.764351,-0.400797 -1.296073,-1.087879 -0.515106,-0.68708 -0.780967,-1.584102 -0.265862,-0.897023 -0.265862,-1.889472 0,-1.087879 0.299094,-1.9849 0.315711,-0.916109 0.880666,-1.565018 0.581571,-0.667995 1.39577,-1.030621 0.814199,-0.3626261 1.811178,-0.3626261 z m -0.182779,8.1495421 q 0.681269,0 1.163142,-0.267198 0.481873,-0.286284 0.780968,-0.744338 0.31571,-0.458054 0.44864,-1.030621 0.149547,-0.591653 0.149547,-1.221477 0,-0.64891 -0.149547,-1.202391 -0.13293,-0.572567 -0.432024,-0.992451 -0.282477,-0.419882 -0.747735,-0.64891 -0.448641,-0.248111 -1.08006,-0.248111 -0.648037,0 -1.12991,0.248111 -0.481873,0.248113 -0.8142,0.687081 -0.315709,0.419883 -0.481872,1.011536 -0.166163,0.591653 -0.166163,1.278734 0,1.393247 0.614803,2.271183 0.63142,0.858852 1.844411,0.858852 z"
       style="font-size:17.8082px;line-height:1.25;font-family:Sniglet;-inkscape-font-specification:Sniglet;fill:#ff7a82;stroke-width:0.20869"
       />
   <path
       d="m 52.463141,18.926917 q -0.0997,-0.324456 -0.13293,-0.725252 -0.01662,-0.400797 -0.01662,-0.99245 0,-0.419883 0,-0.64891 0.01662,-0.248113 0.01662,-0.419883 0,-0.190856 0,-0.362626 0.01662,-0.190856 0.01662,-0.51531 0,-0.667996 -0.03324,-1.335991 -0.01662,-0.68708 -0.166163,-1.221477 -0.149546,-0.553482 -0.465257,-0.897022 -0.31571,-0.34354 -0.913897,-0.34354 -1.013596,0 -1.57855,1.106963 -0.564955,1.106963 -0.68127,3.530832 -0.03324,0.763423 -0.03324,1.393248 0,0.629823 -0.06646,1.087877 -0.06646,0.438969 -0.249244,0.687081 -0.166163,0.248113 -0.564955,0.248113 -0.365559,0 -0.531722,-0.209942 -0.166163,-0.229027 -0.249245,-0.667995 -0.06646,-0.438968 -0.08308,-1.068793 0,-0.629823 -0.04984,-1.469589 -0.04985,-0.916108 -0.166163,-1.755874 -0.0997,-0.839764 -0.348943,-1.469589 -0.232628,-0.648909 -0.648036,-1.030621 -0.398792,-0.381711 -1.030212,-0.381711 -0.598187,0 -0.930513,0.34354 -0.31571,0.324455 -0.465257,0.877937 -0.149547,0.534396 -0.18278,1.221477 -0.01662,0.667995 -0.01662,1.355076 0,0.34354 0,0.51531 0.01662,0.152685 0.01662,0.286283 0,0.1336 0,0.343541 0.01662,0.209941 0.01662,0.64891 0,0.629824 -0.03324,1.087877 -0.01662,0.458054 -0.116314,0.78251 -0.116314,0.381711 -0.315711,0.477139 -0.199395,0.07634 -0.365558,0.07634 -0.515106,0 -0.664653,-0.419883 -0.149547,-0.419882 -0.166163,-1.221477 0,-0.438967 -0.01662,-0.973364 0,-0.553482 0,-1.33599 0,-0.381712 0,-0.667996 0,-0.286283 0,-0.553481 0.01662,-0.267199 0.01662,-0.534397 0.01662,-0.286284 0.03324,-0.648909 0.04984,-1.164221 0.365559,-1.851301 0.31571,-0.706167 0.747735,-1.068793 0.432024,-0.3626257 0.930513,-0.4580536 0.49849,-0.1145134 0.913898,-0.1145134 0.897281,0 1.512084,0.3053692 0.614805,0.3053688 0.996979,0.8015938 0.398792,0.496226 0.581571,1.126049 0.199397,0.629825 0.265862,1.278735 0.06646,-0.629825 0.265861,-1.240563 0.216012,-0.629824 0.614803,-1.106964 0.415408,-0.496225 1.063445,-0.8015941 0.648036,-0.3053692 1.595166,-0.3053692 0.448641,0 0.913898,0.1145135 0.481873,0.095428 0.880665,0.4580538 0.398792,0.362626 0.664652,1.049706 0.282477,0.667996 0.332327,1.813131 0.01662,0.362625 0.01662,0.648909 0.01662,0.267198 0.01662,0.534397 0.01662,0.267198 0.01662,0.553481 0,0.286284 0,0.667996 0,0.782508 -0.01662,1.33599 0,0.534397 0,0.973364 0,0.362626 -0.03324,0.667995 -0.01662,0.305369 -0.0997,0.515312 -0.08308,0.209941 -0.249245,0.343539 -0.149547,0.114514 -0.448641,0.114514 -0.282477,0 -0.432024,-0.114514 -0.149547,-0.133598 -0.249245,-0.438967 z"
       style="font-size:17.8082px;line-height:1.25;font-family:Sniglet;-inkscape-font-specification:Sniglet;fill:#ff7a82;stroke-width:0.20869"
       />
   <path
       d="m 59.774309,9.8230959 q 0.94713,0 1.694864,0.3435401 0.747734,0.324455 1.26284,0.935193 0.531723,0.610739 0.8142,1.488676 0.282478,0.877936 0.282478,1.965815 0,1.20239 -0.332327,2.156669 -0.31571,0.954279 -0.897281,1.622274 -0.564955,0.667995 -1.362539,1.030622 -0.780966,0.362626 -1.71148,0.362626 -1.013596,0 -1.794562,-0.400797 -0.764351,-0.400797 -1.296073,-1.087879 -0.515106,-0.68708 -0.780967,-1.584102 -0.265861,-0.897023 -0.265861,-1.889472 0,-1.087879 0.299093,-1.9849 0.315711,-0.916109 0.880666,-1.565018 0.581571,-0.667995 1.39577,-1.030621 0.8142,-0.3626261 1.811179,-0.3626261 z m -0.18278,8.1495421 q 0.68127,0 1.163143,-0.267198 0.481872,-0.286284 0.780966,-0.744338 0.315711,-0.458054 0.448641,-1.030621 0.149547,-0.591653 0.149547,-1.221477 0,-0.64891 -0.149547,-1.202391 -0.13293,-0.572567 -0.432024,-0.992451 -0.282477,-0.419882 -0.747735,-0.64891 -0.44864,-0.248111 -1.08006,-0.248111 -0.648037,0 -1.12991,0.248111 -0.481873,0.248113 -0.814199,0.687081 -0.31571,0.419883 -0.481873,1.011536 -0.166164,0.591653 -0.166164,1.278734 0,1.393247 0.614804,2.271183 0.63142,0.858852 1.844411,0.858852 z"
       style="font-size:17.8082px;line-height:1.25;font-family:Sniglet;-inkscape-font-specification:Sniglet;fill:#ff7a82;stroke-width:0.20869"
       />
   <path
       d="m 69.262185,9.7658392 q 0.481873,0 0.963747,0.095428 0.498489,0.095428 0.89728,0.267198 0.398792,0.17177 0.648036,0.419883 0.249245,0.248112 0.249245,0.572567 0,0.839765 -0.830816,0.839765 -0.199395,0 -0.382174,-0.05725 -0.166164,-0.07634 -0.398792,-0.133599 -0.232629,-0.07634 -0.581571,-0.133599 -0.348944,-0.07634 -0.864049,-0.07634 -1.096677,0 -1.694864,0.858851 -0.598187,0.858851 -0.598187,2.233013 0,1.50776 0.598187,2.423868 0.614803,0.916108 1.728097,0.916108 0.697885,0 1.129909,-0.1336 0.432025,-0.133598 0.697886,-0.305369 0.282477,-0.17177 0.44864,-0.305369 0.182779,-0.133599 0.398792,-0.133599 0.299094,0 0.465257,0.152685 0.182779,0.133599 0.182779,0.572567 0,0.458054 -0.31571,0.801595 -0.299094,0.343539 -0.76435,0.572567 -0.465258,0.229027 -1.013595,0.34354 -0.531723,0.114513 -0.980363,0.114513 -2.010575,0 -3.157101,-1.278733 -1.146526,-1.278734 -1.146526,-3.62626 0,-1.011536 0.265861,-1.908557 0.282477,-0.916109 0.830816,-1.603189 0.548339,-0.687081 1.345922,-1.087878 0.814199,-0.4007973 1.877644,-0.4007973 z"
       style="font-size:17.8082px;line-height:1.25;font-family:Sniglet;-inkscape-font-specification:Sniglet;fill:#ff7a82;stroke-width:0.20869"
       />
   <path
       d="m 77.636807,11.369028 q -0.614803,0 -1.113293,0.229026 -0.481873,0.229028 -1.096678,0.687082 0,0.400797 0,1.183305 0,0.763423 -0.01662,1.679531 -0.01662,0.897022 -0.03324,1.774958 -0.01662,0.877938 -0.06646,1.46959 -0.03324,0.381712 -0.08308,0.610738 -0.03324,0.209943 -0.116315,0.324456 -0.06646,0.114513 -0.199395,0.152684 -0.116314,0.01909 -0.31571,0.01909 -0.199396,0 -0.332327,-0.01909 -0.116314,-0.03818 -0.199395,-0.133599 -0.08308,-0.114513 -0.132931,-0.324454 -0.04984,-0.209942 -0.08308,-0.572568 -0.03324,-0.34354 -0.06646,-0.916108 -0.01662,-0.572567 -0.03324,-1.240562 -0.01662,-0.687081 -0.03324,-1.374162 0,-0.706166 0,-1.297819 0,-0.973364 0.01662,-1.584103 0.03324,-0.610738 0.0997,-1.087878 0.0997,-0.801594 0.265861,-1.0115356 0.166163,-0.2099414 0.448641,-0.2099414 0.415408,0 0.614804,0.2671981 0.216012,0.2671979 0.265861,0.8779369 0.614804,-0.610739 1.312689,-0.9733648 0.714502,-0.362626 1.462236,-0.362626 0.714501,0 1.296072,0.3817116 0.598188,0.3817112 0.980363,1.2405622 0.232629,0.515311 0.348944,1.145135 0.116313,0.610738 0.166163,1.29782 0.01662,0.305369 0.03324,0.610738 0.01662,0.286283 0.01662,0.629824 0.01662,0.324455 0.01662,0.744337 0,0.419883 0,0.992451 0,0.610738 -0.01662,1.145134 -0.01662,0.534397 -0.0997,0.935194 -0.06646,0.381711 -0.249245,0.610738 -0.182779,0.209941 -0.498489,0.209941 -0.764351,0 -0.797584,-0.839765 0,-0.05725 0,-0.477139 0,-0.438969 -0.01662,-1.011536 0,-0.572567 -0.01662,-1.16422 0,-0.591654 -0.01662,-0.973365 -0.01662,-0.305369 -0.04985,-0.648909 -0.01662,-0.362626 -0.06646,-0.725253 -0.03324,-0.362626 -0.0997,-0.68708 -0.06646,-0.343541 -0.166163,-0.610739 -0.232629,-0.629824 -0.581571,-0.801594 -0.348943,-0.17177 -0.747734,-0.17177 z"
       style="font-size:17.8082px;line-height:1.25;font-family:Sniglet;-inkscape-font-specification:Sniglet;fill:#ff7a82;stroke-width:0.20869"
       />
   <path
       d="m 84.931358,22.992144 q -0.216012,0.438969 -0.415408,0.64891 -0.182779,0.209941 -0.432024,0.209941 -0.232629,0 -0.465256,-0.171769 -0.232629,-0.171771 -0.232629,-0.47714 0,-0.286283 0.166163,-0.82068 0.18278,-0.534396 0.432024,-1.16422 0.265861,-0.629824 0.548339,-1.29782 0.282477,-0.667995 0.515106,-1.221477 l 0.116314,-0.286283 q -0.49849,-1.12605 -1.030212,-2.404783 -0.515105,-1.278734 -0.94713,-2.423869 -0.432024,-1.145134 -0.714501,-1.9849 -0.265862,-0.858851 -0.265862,-1.126048 0,-0.248113 0.166163,-0.419883 0.18278,-0.190856 0.448641,-0.190856 0.232629,0 0.44864,0.1145135 0.216013,0.095427 0.398792,0.4580535 0.265861,0.572567 0.548339,1.316905 0.299093,0.725253 0.581571,1.526846 0.299093,0.801595 0.598187,1.622274 0.315711,0.820681 0.631421,1.584104 0.365558,-0.782509 0.780966,-1.64136 0.415408,-0.858851 0.797584,-1.660446 0.398792,-0.801593 0.731118,-1.469589 0.332326,-0.687081 0.564954,-1.145135 0.232629,-0.438968 0.465257,-0.6298236 0.232629,-0.1908558 0.481874,-0.1908558 0.166163,0 0.332326,0.1717702 0.166163,0.1526842 0.166163,0.4198822 0,0.400797 -0.31571,1.29782 -0.299094,0.877936 -0.780967,2.042156 -0.481873,1.164221 -1.096677,2.500212 -0.598187,1.316905 -1.196375,2.595638 -0.598187,1.259648 -1.146526,2.366612 -0.531722,1.106963 -0.880665,1.8513 z"
       style="font-size:17.8082px;line-height:1.25;font-family:Sniglet;-inkscape-font-specification:Sniglet;fill:#ff7a82;stroke-width:0.20869"
       id="path16331" />
   <path
       d="m 91.926821,17.400071 q 0.382175,0 0.697885,0.343539 0.332326,0.343541 0.332326,0.820681 0,0.458054 -0.332326,0.801594 -0.332327,0.324455 -0.747735,0.324455 -0.348942,0 -0.664652,-0.324455 -0.299093,-0.34354 -0.299093,-0.839766 0,-0.458053 0.299093,-0.782509 0.31571,-0.343539 0.714502,-0.343539 z"
       style="font-size:17.8082px;line-height:1.25;font-family:Sniglet;-inkscape-font-specification:Sniglet;fill:#ff7a82;stroke-width:0.20869"
       />
   <path
       d="m 96.114097,22.247807 q 0,0.362626 -0.01661,0.687081 -0.01661,0.34354 -0.116316,0.610738 -0.08304,0.267198 -0.26586,0.419883 -0.166162,0.17177 -0.481876,0.17177 -0.365558,0 -0.6148,-0.305369 -0.232634,-0.286284 -0.26587,-1.030622 -0.01661,-0.477139 -0.04983,-1.16422 -0.03322,-0.68708 -0.06643,-1.450503 -0.01661,-0.763423 -0.04983,-1.526846 -0.01661,-0.763423 -0.01661,-1.412333 0,-2.233013 0.265869,-3.683517 0.282478,-1.450504 0.830816,-2.309355 0.548338,-0.858851 1.345918,-1.202391 0.814198,-0.3435406 1.877647,-0.3435406 0.847425,0 1.595159,0.3053696 0.74774,0.286283 1.29607,0.916107 0.56496,0.610739 0.89729,1.603189 0.33232,0.973365 0.33232,2.347526 0,1.145135 -0.34894,2.023071 -0.33233,0.877937 -0.93051,1.488675 -0.59819,0.591653 -1.412391,0.916108 -0.797579,0.305369 -1.711476,0.305369 -0.780971,0 -1.41239,-0.362626 -0.6148,-0.381711 -0.88066,-0.82068 0.08304,1.068793 0.132925,1.9849 0.06643,0.916108 0.06643,1.832216 z m 2.293059,-10.630666 q -0.581574,0 -1.013595,0.229026 -0.415412,0.229027 -0.681272,0.629825 -0.26586,0.400796 -0.398795,0.954278 -0.116307,0.553482 -0.116307,1.202391 0,0.629825 0.09969,1.202392 0.116317,0.553482 0.365559,0.973364 0.249251,0.419883 0.664654,0.667995 0.415413,0.248113 1.013595,0.248113 0.465258,0 0.897288,-0.133598 0.432021,-0.152686 0.764348,-0.496226 0.34895,-0.34354 0.54833,-0.916107 0.21602,-0.572568 0.21602,-1.431419 0,-0.877937 -0.21602,-1.46959 -0.19938,-0.610738 -0.54833,-0.973364 -0.332327,-0.381711 -0.764348,-0.534396 -0.415412,-0.152684 -0.830816,-0.152684 z"
       style="font-size:17.8082px;line-height:1.25;font-family:Sniglet;-inkscape-font-specification:Sniglet;fill:#ff7a82;stroke-width:0.20869"
       />
   <path
       d="m 104.18961,18.39252 q -0.0166,-0.68708 -0.0332,-1.603188 -0.0166,-0.916108 -0.0332,-1.984901 0,-1.068792 -0.0166,-2.252098 0,-1.183305 0,-2.423868 0,-1.3550759 0.0166,-2.3284404 0.0166,-0.9733645 0.083,-1.6031885 0.083,-0.6298241 0.24924,-0.9161077 0.16617,-0.3053692 0.46526,-0.3053692 0.28248,0 0.49849,0.2099413 0.21602,0.2099414 0.24925,0.9733644 0.0664,1.3741617 0.083,2.8628367 0.0166,1.4695894 0.0166,2.9010084 0,0.858851 0,1.660444 0,0.78251 -0.0166,1.565018 -0.0166,0.763423 -0.0332,1.565017 -0.0166,0.801595 -0.0498,1.660446 -0.0166,0.458054 -0.0831,0.706166 -0.0498,0.248113 -0.14954,0.381711 -0.0997,0.1336 -0.23263,0.152685 -0.11631,0.03817 -0.28248,0.03817 -0.29909,0 -0.49849,-0.229026 -0.19939,-0.248113 -0.23263,-1.030621 z"
       style="font-size:17.8082px;line-height:1.25;font-family:Sniglet;-inkscape-font-specification:Sniglet;fill:#ff7a82;stroke-width:0.20869"
       />
</svg>
