<?xml version="1.0" encoding="utf-8"?>
<!-- Generator: Adobe Illustrator 24.1.0, SVG Export Plug-In . SVG Version: 6.00 Build 0)  -->
<svg version="1.1" id="Layer_1" xmlns="http://www.w3.org/2000/svg" xmlns:xlink="http://www.w3.org/1999/xlink" x="0px" y="0px"
	 viewBox="0 0 1960 2000" style="enable-background:new 0 0 1960 2000;" xml:space="preserve">
<style type="text/css">
	.st0{fill:#ACAFE0;}
	.st1{fill:#FF7A82;}
	.st2{fill:#FA5555;}
	.st3{fill:#BF3A3A;}
	.st4{fill:#EBDBCD;}
	.st5{fill:#FCB58A;}
	.st6{fill:#D5D5ED;}
	.st7{fill:#FFFFFF;}
	.st8{fill:#E8E8F7;}
	.st9{fill:#4C7378;}
	.st10{fill:#57848A;}
	.st11{fill:#689399;}
</style>
<g id="Layer_2_1_">
	<g id="illustrations">
		<path class="st0" d="M1150.9,962.2h153l0,0v875.2c0,42.2-34.2,76.5-76.5,76.5l0,0l0,0c-42.2,0-76.5-34.2-76.5-76.5l0,0V962.2
			L1150.9,962.2z"/>
		<path class="st1" d="M830.7,212.4L830.7,212.4c185.5,0,335.9,150.4,335.9,335.9c0,0,0,0,0,0v349.1c0,35.8-29,64.9-64.9,64.9l0,0
			h-542c-35.8,0-64.9-29-64.9-64.9V548.3C494.8,362.8,645.2,212.4,830.7,212.4L830.7,212.4z"/>
		<path class="st2" d="M1624.2,212.4H830.7c185.5,0,335.9,150.4,335.9,335.9c0,0,0,0,0,0v302.5l0,0v46.6c0,35.8-29,64.9-64.9,64.9
			l0,0h793.4c35.8,0,64.9-29,64.9-64.9V548.3C1959.9,362.9,1809.7,212.5,1624.2,212.4z"/>
		<path class="st3" d="M830.7,271.4L830.7,271.4c156.4,0,283.1,126.8,283.1,283.1l0,0v294.1c0,30.2-24.5,54.7-54.7,54.7H602.3
			c-30.2,0-54.7-24.5-54.7-54.7V554.4C547.7,398.1,674.4,271.4,830.7,271.4z"/>
		<circle class="st4" cx="1383.5" cy="503.8" r="83.6"/>
		<path class="st5" d="M1504.1,0h-120.6c-16.6,0-30.1,13.5-30.1,30.1v473.8c0,16.6,13.5,30.1,30.1,30.1l0,0
			c16.6,0,30.1-13.5,30.1-30.1V105.2c0-4.5,3.7-8.2,8.2-8.2l0,0h82.3c16.4,0.1,29.9-13.1,30.1-29.5V30.1
			C1534.3,13.5,1520.8,0,1504.1,0z"/>
		<path class="st1" d="M28.6,903.3h1071.2c15.8,0,28.6,12.8,28.6,28.6v1.7c0,15.8-12.8,28.6-28.6,28.6H28.6
			C12.8,962.2,0,949.4,0,933.6v-1.7C0,916.1,12.8,903.3,28.6,903.3z"/>
		<path class="st6" d="M557.6,555.3c-8.5-7.3-21-7.3-29.5,0L204.4,825c5.6,6.8,14,10.8,22.8,10.8h630.7c8.8-0.1,17.2-4,22.8-10.8
			L557.6,555.3z"/>
		<path class="st7" d="M878.3,393.8L878.3,393.8l-1.7-1.6l0,0L878.3,393.8z"/>
		<path class="st7" d="M527.7,645.6c8.9,6.3,20.7,6.3,29.5,0l321-251.8c-0.6-0.6-1.1-1.2-1.7-1.7l0,0l0,0l0,0
			c-1.5-1.2-3.2-2.2-4.9-3c0.8,0,1.5,0.9,2.3,1.3c-4.6-2.7-9.8-4.1-15.1-4.1H227.2c-7.5-0.1-14.8,2.5-20.5,7.5L527.7,645.6z"/>
		<path class="st8" d="M473,602.6L206.7,393.8c-0.8,0.8-1.8,1.5-2.5,2.3l0,0c-5,6-7.6,13.5-7.4,21.3v385.9c0,8,2.8,15.8,8,21.9
			L473,602.6z"/>
		<path class="st8" d="M876.6,829l-1,0.7L876.6,829z"/>
		<path class="st8" d="M876.1,829.7c-1.5,1.2-3.2,2.3-4.9,3.2C872.9,832,874.6,831,876.1,829.7z"/>
		<path class="st8" d="M878.3,393.8L612.5,602.3l268.7,222.4c-1.3,1.4-2.7,2.8-4.2,4c7.7-6.4,12.2-15.9,12.1-25.9V417.3
			C889.1,408.2,885.1,399.7,878.3,393.8z"/>
		<path class="st8" d="M880.7,396.3c-0.7-0.9-1.6-1.7-2.5-2.4l0,0C879.2,394.7,880,395.5,880.7,396.3z"/>
		<path class="st9" d="M1268.2,1690.1c12.1-36.6,28.1-71.9,47.5-105.2c17.7-29.5,34.1-52.4,47.1-71.5c13-19.1,23.5-34.8,31.8-47.4
			c8.3-12.6,15-21.5,21.9-22.4c6.9-1,15.9,5.9,24.6,22.1c10.6,22.6,15.7,47.5,14.9,72.5c-0.7,33.3-5.4,66.3-14,98.4
			c-7.8,32.5-17.1,66.4-28.8,101.9c-11,33.4-23.8,66.3-38.1,98.4c-13.2,29.5-27.3,57.8-39.4,78.8l-29.5,52.4
			c-7.6,13.3-13.4,22.1-18.4,22.8c-5,0.7-15.3-5.9-24.2-21.6c-11-21.4-17.7-44.9-19.7-68.9c-3.4-32.2-3.4-64.7,0-97
			C1247.8,1764.8,1256,1726.9,1268.2,1690.1z"/>
		<path class="st10" d="M1094.4,1651.1c-18.9-43.4-41.5-88.6-59.1-134.8c-17-42.6-26.9-87.7-29.5-133.5c-2-32.2,3.5-64.4,15.9-94.2
			c9.8-21,20.6-29.5,27.1-28.7s11.9,13.3,19.2,31.4c9.3,23.8,19.8,47.1,31.7,69.7c14.4,28,33.8,59.1,57.6,95.2
			c29,42.3,54.4,86.8,76,133.3c22.1,50.1,36.6,103.1,43,157.5c5.3,44.1,4.9,88.7-1.4,132.7c-11.1,75-35.3,117-44.6,116.3
			c-12.9-0.8-27.3-45-48.1-109.1C1157.2,1806.8,1127.9,1728.1,1094.4,1651.1z"/>
		<path class="st11" d="M1039,1810.1c-5.2-4.4-9.8-9.2-15.2-13.4c-5.3-4.2-9.8-8.9-15.3-12.4c-2.6-1.9-5.1-3.8-7.6-5.9
			c-2.5-2.1-5.2-3.4-7.7-5.3l-7.7-5.5l-8.9-5.6c-12.6-7.7-28.1-16.2-43.3-27.3c-15.9-11-29.8-24.6-41-40.3
			c-17.1-22.9-23.8-52-18.3-80c4.7-18.6,13.9-26.5,20.5-26.4c6.6,0.1,14.3,7.7,24.8,16.1c11.2,9.7,24.5,16.4,38.9,19.7
			c14.2,3,32.9,3.2,68.9,11.1c4.4,1,9.1,2.3,14,3.7c4.9,1.5,9.8,3.5,15.2,5.4s9.8,3.8,15.4,6.2l15.1,7.6c10.2,5.3,20.1,11.3,29.5,18
			c9.5,6.9,18.7,14.4,27.4,22.3c32.3,30.3,56.7,68.1,71,110.1c11.5,33.4,15.6,69,12,104.1c-1.3,13.4-4.1,26.6-8.1,39.4
			c-3.3,9.6-7.5,18.8-12.4,27.7c-9.3,14.5-17.1,21.1-22,20.5c-13.1-1.7-25.8-33.8-49.2-71.2C1108.6,1885,1076.3,1845,1039,1810.1z"
			/>
	</g>
</g>
</svg>
